<svg id="Layer_1" viewBox="0 0 24 24" xmlns="http://www.w3.org/2000/svg" data-name="Layer 1"><path d="m18 10c.352 0 .696.031 1.036.075-.521-.714-1.218-1.292-2.036-1.651v-1.424c0-3.86-3.141-7-7-7s-7 3.14-7 7v1.424c-1.763.774-3 2.531-3 4.576v6c0 2.757 2.243 5 5 5h7.721c-1.665-1.466-2.721-3.607-2.721-6-.553 0-1-.448-1-1v-2c0-.552.447-1 1-1 .354 0 .65.195.828.472 1.305-2.647 4.022-4.472 7.172-4.472zm-13-2v-1c0-2.757 2.243-5 5-5s5 2.243 5 5v1zm13 4c-3.309 0-6 2.691-6 6s2.691 6 6 6 6-2.691 6-6-2.691-6-6-6zm0 2c1.105 0 2 .895 2 2s-.895 2-2 2-2-.895-2-2 .895-2 2-2zm0 8c-1.08 0-2.057-.434-2.778-1.132.445-1.095 1.515-1.868 2.769-1.868h.016c1.253 0 2.323.775 2.768 1.87-.72.697-1.697 1.13-2.776 1.13z"/></svg>