<?xml version="1.0" encoding="UTF-8"?>
<svg version="1.1" xmlns="http://www.w3.org/2000/svg" width="128" height="128">
<path d="M0 0 C1.02631531 -0.00708481 2.05263062 -0.01416962 3.11004639 -0.02146912 C4.23533752 -0.0189917 5.36062866 -0.01651428 6.52001953 -0.01396179 C7.70557434 -0.01907272 8.89112915 -0.02418365 10.11260986 -0.02944946 C13.36464363 -0.04097852 16.61651956 -0.04341742 19.86856842 -0.04088616 C22.58242417 -0.03981714 25.29625634 -0.04469796 28.01010704 -0.04949158 C34.41121557 -0.06058898 40.81226541 -0.06102263 47.21337891 -0.05497742 C53.82030588 -0.04893389 60.42702009 -0.06125756 67.03391075 -0.08254749 C72.70447334 -0.10014932 78.37496811 -0.10616718 84.04555702 -0.10290974 C87.43324188 -0.10109474 90.8207749 -0.10375456 94.20843506 -0.11762428 C97.98434022 -0.12990847 101.75974782 -0.12324512 105.53564453 -0.11161804 C106.66093567 -0.11926178 107.78622681 -0.12690552 108.94561768 -0.13478088 C110.48509064 -0.12425941 110.48509064 -0.12425941 112.05566406 -0.11352539 C112.94867218 -0.11369313 113.8416803 -0.11386087 114.76174927 -0.1140337 C117.02783203 0.26069641 117.02783203 0.26069641 118.8147831 1.53934097 C121.00763689 4.65107101 120.44181853 8.52287394 120.41601562 12.19844055 C120.42390106 13.56953224 120.42390106 13.56953224 120.4319458 14.96832275 C120.44516649 17.99433907 120.43640106 21.01983085 120.42626953 24.04585266 C120.42828949 26.14427797 120.43120028 28.24270259 120.43496704 30.34112549 C120.43939306 34.74024637 120.43294968 39.13918462 120.41894531 43.5382843 C120.40184285 49.18688247 120.41169972 54.83505337 120.4296627 60.4836359 C120.44048402 64.81667319 120.43706198 69.14960855 120.42927933 73.48264885 C120.42727329 75.56593819 120.42975067 77.64923668 120.43671799 79.73251534 C120.44430644 82.63937664 120.43276541 85.54553787 120.41601562 88.4523468 C120.42208832 89.31941254 120.42816101 90.18647827 120.43441772 91.07981873 C120.40878296 93.47177124 120.40878296 93.47177124 120.02783203 97.26069641 C116.92697633 99.32793355 116.29851522 99.50567064 112.79736328 99.45600891 C111.99492188 99.4495636 111.19248047 99.44311829 110.36572266 99.43647766 C109.1156543 99.41134094 109.1156543 99.41134094 107.84033203 99.38569641 C106.57286133 99.37216125 106.57286133 99.37216125 105.27978516 99.35835266 C103.19567961 99.33480345 101.11171986 99.29893289 99.02783203 99.26069641 C99.02783203 100.91069641 99.02783203 102.56069641 99.02783203 104.26069641 C101.01543456 105.39062675 101.01543456 105.39062675 103.40283203 105.57319641 C106.76430953 106.45358338 107.92348516 107.50327637 110.02783203 110.26069641 C111.38861036 114.19979156 112.28294793 118.16383387 113.02783203 122.26069641 C112.09970703 122.35350891 112.09970703 122.35350891 111.15283203 122.44819641 C108.75022062 123.08961541 108.75022062 123.08961541 107.77783203 125.82319641 C107.53033203 126.62757141 107.28283203 127.43194641 107.02783203 128.26069641 C104.0660808 127.64792029 102.6472442 127.00697119 100.02783203 125.26069641 C99.05845703 125.15757141 98.08908203 125.05444641 97.09033203 124.94819641 C94.02783203 124.26069641 94.02783203 124.26069641 91.65283203 122.01069641 C89.91477669 119.06937198 89.64554187 117.60573531 90.02783203 114.26069641 C86.38921006 113.04782242 86.01069352 113.55328488 82.71533203 115.19819641 C74.68772986 118.56158594 65.85762996 118.61405537 57.65283203 115.69819641 C50.88974402 112.56136941 45.23446857 107.3953747 41.02783203 101.26069641 C41.02783203 100.60069641 41.02783203 99.94069641 41.02783203 99.26069641 C39.93112183 99.26855164 39.93112183 99.26855164 38.81225586 99.27656555 C35.48829005 99.29739802 32.164338 99.31037655 28.84033203 99.32319641 C27.68984375 99.33157532 26.53935547 99.33995422 25.35400391 99.34858704 C24.2421875 99.35180969 23.13037109 99.35503235 21.98486328 99.35835266 C20.96368408 99.36358948 19.94250488 99.36882629 18.89038086 99.3742218 C16.02783203 99.26069641 16.02783203 99.26069641 13.21801758 98.6920929 C12.13387573 98.47855164 12.13387573 98.47855164 11.02783203 98.26069641 C10.69783203 98.59069641 10.36783203 98.92069641 10.02783203 99.26069641 C7.55619517 99.38752265 5.12492592 99.44589893 2.65283203 99.44819641 C1.96705078 99.4604425 1.28126953 99.4726886 0.57470703 99.48530579 C-3.16513594 99.49621972 -4.78214167 99.38738061 -7.97216797 97.26069641 C-8.27413291 94.2219368 -8.38138948 91.38633384 -8.36035156 88.34468079 C-8.368237 86.95917778 -8.368237 86.95917778 -8.37628174 85.54568481 C-8.38952352 82.48176843 -8.38072885 79.4183684 -8.37060547 76.35444641 C-8.372625 74.23217163 -8.37553542 72.10989752 -8.37930298 69.98762512 C-8.383732 65.5354503 -8.37727664 61.08345578 -8.36328125 56.63130188 C-8.34618914 50.91429543 -8.35602722 45.19771145 -8.37399864 39.48072052 C-8.38482084 35.09706926 -8.38139733 30.71351874 -8.37361526 26.3298645 C-8.37160893 24.22145539 -8.37408765 22.11303723 -8.38105392 20.00463867 C-8.38864267 17.06174873 -8.3771004 14.11955026 -8.36035156 11.17671204 C-8.36642426 10.29872452 -8.37249695 9.420737 -8.37875366 8.5161438 C-8.3531189 6.09431458 -8.3531189 6.09431458 -7.97216797 2.26069641 C-4.70566564 0.08302819 -3.78078966 0.00869138 0 0 Z " fill="#F7B14B" transform="translate(7.97216796875,-0.2606964111328125)"/>
<path d="M0 0 C1.02631531 -0.00708481 2.05263062 -0.01416962 3.11004639 -0.02146912 C4.23533752 -0.0189917 5.36062866 -0.01651428 6.52001953 -0.01396179 C7.70557434 -0.01907272 8.89112915 -0.02418365 10.11260986 -0.02944946 C13.36464363 -0.04097852 16.61651956 -0.04341742 19.86856842 -0.04088616 C22.58242417 -0.03981714 25.29625634 -0.04469796 28.01010704 -0.04949158 C34.41121557 -0.06058898 40.81226541 -0.06102263 47.21337891 -0.05497742 C53.82030588 -0.04893389 60.42702009 -0.06125756 67.03391075 -0.08254749 C72.70447334 -0.10014932 78.37496811 -0.10616718 84.04555702 -0.10290974 C87.43324188 -0.10109474 90.8207749 -0.10375456 94.20843506 -0.11762428 C97.98434022 -0.12990847 101.75974782 -0.12324512 105.53564453 -0.11161804 C106.66093567 -0.11926178 107.78622681 -0.12690552 108.94561768 -0.13478088 C110.48509064 -0.12425941 110.48509064 -0.12425941 112.05566406 -0.11352539 C112.94867218 -0.11369313 113.8416803 -0.11386087 114.76174927 -0.1140337 C117.02783203 0.26069641 117.02783203 0.26069641 118.8147831 1.53934097 C121.00763689 4.65107101 120.44181853 8.52287394 120.41601562 12.19844055 C120.42390106 13.56953224 120.42390106 13.56953224 120.4319458 14.96832275 C120.44516649 17.99433907 120.43640106 21.01983085 120.42626953 24.04585266 C120.42828949 26.14427797 120.43120028 28.24270259 120.43496704 30.34112549 C120.43939306 34.74024637 120.43294968 39.13918462 120.41894531 43.5382843 C120.40184285 49.18688247 120.41169972 54.83505337 120.4296627 60.4836359 C120.44048402 64.81667319 120.43706198 69.14960855 120.42927933 73.48264885 C120.42727329 75.56593819 120.42975067 77.64923668 120.43671799 79.73251534 C120.44430644 82.63937664 120.43276541 85.54553787 120.41601562 88.4523468 C120.42208832 89.31941254 120.42816101 90.18647827 120.43441772 91.07981873 C120.40878296 93.47177124 120.40878296 93.47177124 120.02783203 97.26069641 C116.92697633 99.32793355 116.29851522 99.50567064 112.79736328 99.45600891 C111.99492188 99.4495636 111.19248047 99.44311829 110.36572266 99.43647766 C109.1156543 99.41134094 109.1156543 99.41134094 107.84033203 99.38569641 C106.57286133 99.37216125 106.57286133 99.37216125 105.27978516 99.35835266 C103.19567961 99.33480345 101.11171986 99.29893289 99.02783203 99.26069641 C99.02783203 100.91069641 99.02783203 102.56069641 99.02783203 104.26069641 C101.01543456 105.39062675 101.01543456 105.39062675 103.40283203 105.57319641 C106.76430953 106.45358338 107.92348516 107.50327637 110.02783203 110.26069641 C111.38861036 114.19979156 112.28294793 118.16383387 113.02783203 122.26069641 C112.09970703 122.35350891 112.09970703 122.35350891 111.15283203 122.44819641 C108.75022062 123.08961541 108.75022062 123.08961541 107.77783203 125.82319641 C107.53033203 126.62757141 107.28283203 127.43194641 107.02783203 128.26069641 C104.0660808 127.64792029 102.6472442 127.00697119 100.02783203 125.26069641 C99.05845703 125.15757141 98.08908203 125.05444641 97.09033203 124.94819641 C94.02783203 124.26069641 94.02783203 124.26069641 91.65283203 122.01069641 C89.91477669 119.06937198 89.64554187 117.60573531 90.02783203 114.26069641 C86.38921006 113.04782242 86.01069352 113.55328488 82.71533203 115.19819641 C74.68772986 118.56158594 65.85762996 118.61405537 57.65283203 115.69819641 C50.88974402 112.56136941 45.23446857 107.3953747 41.02783203 101.26069641 C41.02783203 100.60069641 41.02783203 99.94069641 41.02783203 99.26069641 C32.77783203 99.26069641 24.52783203 99.26069641 16.02783203 99.26069641 C15.53283203 98.27069641 15.53283203 98.27069641 15.02783203 97.26069641 C15.35783203 96.60069641 15.68783203 95.94069641 16.02783203 95.26069641 C23.61783203 95.26069641 31.20783203 95.26069641 39.02783203 95.26069641 C38.69783203 91.96069641 38.36783203 88.66069641 38.02783203 85.26069641 C27.79783203 85.26069641 17.56783203 85.26069641 7.02783203 85.26069641 C6.69783203 83.94069641 6.36783203 82.62069641 6.02783203 81.26069641 C16.58783203 80.93069641 27.14783203 80.60069641 38.02783203 80.26069641 C38.52283203 78.77569641 38.52283203 78.77569641 39.02783203 77.26069641 C28.13783203 77.26069641 17.24783203 77.26069641 6.02783203 77.26069641 C6.02783203 76.27069641 6.02783203 75.28069641 6.02783203 74.26069641 C17.24783203 74.26069641 28.46783203 74.26069641 40.02783203 74.26069641 C40.68783203 72.28069641 41.34783203 70.30069641 42.02783203 68.26069641 C47.45661841 60.66940592 53.67298803 55.06658803 63.02783203 53.26069641 C74.07929567 52.40683057 82.36490054 52.81659385 91.27001953 60.09272766 C97.81378358 66.16907999 101.28672166 72.36737196 102.02783203 81.26069641 C100.70783203 81.26069641 99.38783203 81.26069641 98.02783203 81.26069641 C97.82029297 80.55944641 97.61275391 79.85819641 97.39892578 79.13569641 C94.91205065 71.47736964 91.89842905 65.09090819 84.71533203 60.91694641 C76.99445379 57.3612788 69.17806679 55.44905604 60.91845703 58.35444641 C53.12038602 62.00130549 46.63350731 66.64058106 43.50439453 74.99116516 C41.69719699 83.59757312 41.88597205 92.44166022 46.41455078 100.10835266 C50.93125944 106.13427632 56.51403746 110.80725083 64.02783203 112.26069641 C74.16617681 113.37022799 81.34280762 111.36581211 89.34033203 105.13569641 C93.01265941 101.75540301 94.65920833 98.27974337 96.23876953 93.59272766 C96.99587592 91.35514095 97.92524008 89.34603336 99.02783203 87.26069641 C100.51283203 87.75569641 100.51283203 87.75569641 102.02783203 88.26069641 C101.69783203 90.57069641 101.36783203 92.88069641 101.02783203 95.26069641 C105.64783203 94.93069641 110.26783203 94.60069641 115.02783203 94.26069641 C115.35783203 69.84069641 115.68783203 45.42069641 116.02783203 20.26069641 C108.10783203 20.26069641 100.18783203 20.26069641 92.02783203 20.26069641 C92.02783203 18.94069641 92.02783203 17.62069641 92.02783203 16.26069641 C99.94783203 16.26069641 107.86783203 16.26069641 116.02783203 16.26069641 C115.53283203 10.81569641 115.53283203 10.81569641 115.02783203 5.26069641 C73.94283203 4.76569641 73.94283203 4.76569641 32.02783203 4.26069641 C32.02783203 8.22069641 32.02783203 12.18069641 32.02783203 16.26069641 C49.51783203 16.26069641 67.00783203 16.26069641 85.02783203 16.26069641 C85.02783203 17.58069641 85.02783203 18.90069641 85.02783203 20.26069641 C55.65783203 20.26069641 26.28783203 20.26069641 -3.97216797 20.26069641 C-3.64216797 44.68069641 -3.31216797 69.10069641 -2.97216797 94.26069641 C1.31783203 94.59069641 5.60783203 94.92069641 10.02783203 95.26069641 C10.35783203 96.25069641 10.68783203 97.24069641 11.02783203 98.26069641 C9.05483689 100.23369155 5.34294685 99.4456963 2.65283203 99.44819641 C1.96705078 99.4604425 1.28126953 99.4726886 0.57470703 99.48530579 C-3.16513594 99.49621972 -4.78214167 99.38738061 -7.97216797 97.26069641 C-8.27413291 94.2219368 -8.38138948 91.38633384 -8.36035156 88.34468079 C-8.368237 86.95917778 -8.368237 86.95917778 -8.37628174 85.54568481 C-8.38952352 82.48176843 -8.38072885 79.4183684 -8.37060547 76.35444641 C-8.372625 74.23217163 -8.37553542 72.10989752 -8.37930298 69.98762512 C-8.383732 65.5354503 -8.37727664 61.08345578 -8.36328125 56.63130188 C-8.34618914 50.91429543 -8.35602722 45.19771145 -8.37399864 39.48072052 C-8.38482084 35.09706926 -8.38139733 30.71351874 -8.37361526 26.3298645 C-8.37160893 24.22145539 -8.37408765 22.11303723 -8.38105392 20.00463867 C-8.38864267 17.06174873 -8.3771004 14.11955026 -8.36035156 11.17671204 C-8.36642426 10.29872452 -8.37249695 9.420737 -8.37875366 8.5161438 C-8.3531189 6.09431458 -8.3531189 6.09431458 -7.97216797 2.26069641 C-4.70566564 0.08302819 -3.78078966 0.00869138 0 0 Z " fill="#080705" transform="translate(7.97216796875,-0.2606964111328125)"/>
<path d="M0 0 C6.70373185 4.298141 9.99591239 9.75758724 13 17 C13.37382813 17.82242188 13.74765625 18.64484375 14.1328125 19.4921875 C16.26320743 25.65305933 14.04989165 30.26496645 11.55078125 35.98828125 C6.98960946 44.84637559 0.31544201 49.75745677 -9 53 C-18.00114079 54.08114261 -24.73138733 52.59830974 -32.15625 47.52734375 C-38.636555 42.41322246 -42.39287953 36.61809666 -43.4765625 28.375 C-43.83468074 19.0262292 -42.48333587 12.04862604 -36.203125 4.9765625 C-25.39356451 -5.27090085 -13.23849869 -6.67870368 0 0 Z " fill="#9FC6CB" transform="translate(93,60)"/>
<path d="M0 0 C4.7102718 2.62833166 8.40037801 6.61325601 10.8125 11.4375 C11.31384255 17.87782357 11.79198918 24.04593401 7.8125 29.4375 C2.93777707 34.4205501 -1.41744229 37.42507804 -8.5 37.8125 C-13.4311603 37.67301626 -17.22778169 36.39650519 -21.1875 33.4375 C-24.43823089 29.96091188 -26.02720068 27.07869727 -27.1875 22.4375 C-22.2375 22.1075 -17.2875 21.7775 -12.1875 21.4375 C-12.1875 20.7775 -12.1875 20.1175 -12.1875 19.4375 C-17.1375 19.1075 -22.0875 18.7775 -27.1875 18.4375 C-27.1875 16.7875 -27.1875 15.1375 -27.1875 13.4375 C-22.2375 13.1075 -17.2875 12.7775 -12.1875 12.4375 C-12.1875 11.7775 -12.1875 11.1175 -12.1875 10.4375 C-16.4775 10.1075 -20.7675 9.7775 -25.1875 9.4375 C-23.42278784 5.90807568 -22.60404228 4.63757515 -19.75 2.25 C-19.15316406 1.74082031 -18.55632812 1.23164062 -17.94140625 0.70703125 C-12.78836511 -3.0228983 -5.58264257 -2.51218915 0 0 Z " fill="#FBD193" transform="translate(86.1875,66.5625)"/>
<path d="M0 0 C10.80458085 -0.02312312 21.60915586 -0.04091493 32.41375637 -0.05181217 C37.4302247 -0.05704107 42.44667615 -0.06413883 47.46313477 -0.07543945 C52.30009694 -0.0862681 57.13704284 -0.09227679 61.97401619 -0.09487724 C63.82368285 -0.09673153 65.67334857 -0.10035222 67.52300835 -0.10573006 C70.10447014 -0.1129402 72.68586382 -0.11399095 75.26733398 -0.11352539 C76.03985001 -0.11712067 76.81236603 -0.12071594 77.60829163 -0.12442017 C82.88594784 -0.11405216 82.88594784 -0.11405216 84 1 C84.07226502 2.85287502 84.0838122 4.70833878 84.0625 6.5625 C84.05347656 7.57441406 84.04445313 8.58632812 84.03515625 9.62890625 C84.02355469 10.41136719 84.01195313 11.19382812 84 12 C83.27820557 12.02505615 82.55641113 12.0501123 81.81274414 12.07592773 C78.562465 12.19151302 75.31250312 12.31440774 72.0625 12.4375 C70.92619141 12.47681641 69.78988281 12.51613281 68.61914062 12.55664062 C66.99975586 12.61948242 66.99975586 12.61948242 65.34765625 12.68359375 C64.34742432 12.72025146 63.34719238 12.75690918 62.31665039 12.79467773 C60.03930812 12.74671841 60.03930812 12.74671841 59 14 C56.5 14.125 56.5 14.125 54 14 C53.505 13.505 53.505 13.505 53 13 C51.34355634 12.87709282 49.68201007 12.82216092 48.02124023 12.79467773 C46.42970375 12.7647599 46.42970375 12.7647599 44.80601501 12.73423767 C43.651866 12.71752518 42.49771698 12.70081268 41.30859375 12.68359375 C40.13361832 12.66281265 38.95864288 12.64203156 37.74806213 12.62062073 C33.97793676 12.55499876 30.20773918 12.4961817 26.4375 12.4375 C23.88866427 12.3943268 21.33983597 12.35071292 18.79101562 12.30664062 C12.5274186 12.19930451 6.26374864 12.09807309 0 12 C0 8.04 0 4.08 0 0 Z " fill="#CAE4E6" transform="translate(40,4)"/>
<path d="M0 0 C2.64 0 5.28 0 8 0 C8.02312465 9.63112712 8.04091571 19.26224474 8.05181217 28.89339352 C8.05704074 33.36505549 8.06413789 37.83669853 8.07543945 42.30834961 C8.08626929 46.62011973 8.09227704 50.93187159 8.09487724 55.24365425 C8.09673132 56.89236298 8.1003516 58.54107066 8.10573006 60.18977165 C8.11294178 62.49103872 8.11399089 64.7922294 8.11352539 67.09350586 C8.115746 68.4058873 8.11796661 69.71826874 8.12025452 71.07041931 C8 74 8 74 7 75 C4.64686445 75.07271741 2.29166332 75.08370868 -0.0625 75.0625 C-1.99802734 75.04896484 -1.99802734 75.04896484 -3.97265625 75.03515625 C-4.97167969 75.02355469 -5.97070312 75.01195313 -7 75 C-7 74.67 -7 74.34 -7 74 C-5.02 74 -3.04 74 -1 74 C-1.03552979 72.71834961 -1.07105957 71.43669922 -1.10766602 70.11621094 C-1.23805436 65.36032638 -1.36120769 60.60427721 -1.48217773 55.84814453 C-1.5355416 53.78982416 -1.5908665 51.73155365 -1.64819336 49.67333984 C-1.73026087 46.7146276 -1.80527057 43.75580762 -1.87890625 40.796875 C-1.90594131 39.87694763 -1.93297638 38.95702026 -1.96083069 38.00921631 C-1.98092697 37.1486261 -2.00102325 36.28803589 -2.02172852 35.40136719 C-2.04171402 34.64635925 -2.06169952 33.89135132 -2.08229065 33.11346436 C-2 31 -2 31 -1 27 C-15.19 27 -29.38 27 -44 27 C-44.33 25.68 -44.66 24.36 -45 23 C-44 22 -44 22 -42.20933533 21.87974548 C-41.42990067 21.88196609 -40.650466 21.88418671 -39.84741211 21.88647461 C-38.52615578 21.88658791 -38.52615578 21.88658791 -37.1782074 21.88670349 C-36.22092239 21.89186478 -35.26363739 21.89702606 -34.27734375 21.90234375 C-32.81452721 21.90446617 -32.81452721 21.90446617 -31.32215881 21.90663147 C-28.19390857 21.91224867 -25.06572877 21.92480407 -21.9375 21.9375 C-19.82226666 21.94251278 -17.70703219 21.94707607 -15.59179688 21.95117188 C-10.39450704 21.96222369 -5.19725855 21.97897854 0 22 C0 21.34 0 20.68 0 20 C-1.03060547 19.85304688 -1.03060547 19.85304688 -2.08203125 19.703125 C-2.98308594 19.55359375 -3.88414063 19.4040625 -4.8125 19.25 C-5.70582031 19.11078125 -6.59914062 18.9715625 -7.51953125 18.828125 C-10.54604932 17.81769692 -11.45748559 16.75485851 -13 14 C-12.875 11.375 -12.875 11.375 -12 9 C-9 7 -9 7 -6.4375 7.25 C-4 8 -4 8 -2 10 C-1.875 12.625 -1.875 12.625 -2 15 C-1.34 15 -0.68 15 0 15 C0 10.05 0 5.1 0 0 Z " fill="#EB9228" transform="translate(116,20)"/>
<path d="M0 0 C6.20336627 3.43801022 10.47103182 8.04299614 12.56640625 14.890625 C14.00231461 22.19563453 13.20774643 28.14204055 9.59375 34.671875 C6.13862967 39.48911008 0.78151819 43.55350757 -5.03125 44.9375 C-12.76636683 45.95125858 -18.60588539 44.34662951 -25.03125 39.9375 C-30.08044917 35.45164124 -32.6659403 30.97303062 -33.28125 24.17578125 C-33.54695074 17.55817228 -33.1358298 12.29858382 -29.03125 6.9375 C-21.06290317 -1.34514358 -11.09341667 -3.88841409 0 0 Z M-27.03125 10.9375 C-27.03125 11.5975 -27.03125 12.2575 -27.03125 12.9375 C-22.74125 13.2675 -18.45125 13.5975 -14.03125 13.9375 C-14.03125 14.5975 -14.03125 15.2575 -14.03125 15.9375 C-18.98125 16.2675 -23.93125 16.5975 -29.03125 16.9375 C-29.03125 18.5875 -29.03125 20.2375 -29.03125 21.9375 C-24.08125 22.2675 -19.13125 22.5975 -14.03125 22.9375 C-14.03125 23.5975 -14.03125 24.2575 -14.03125 24.9375 C-18.98125 25.2675 -23.93125 25.5975 -29.03125 25.9375 C-26.68445158 32.23680102 -24.02200756 35.96631888 -18.28125 39.75 C-12.5877637 41.8303123 -7.42674323 41.85158591 -1.84375 39.375 C3.20288371 36.54888512 7.13294864 32.44490408 8.96875 26.9375 C9.45389482 21.42593667 9.73612316 16.56078938 7.34375 11.5 C2.14161018 5.88716493 -2.51836927 1.97624671 -10.40625 1.5625 C-17.61016722 1.7419996 -22.37398963 5.57459412 -27.03125 10.9375 Z " fill="#0F0E0B" transform="translate(88.03125,63.0625)"/>
<path d="M0 0 C1.29349365 0.00523682 2.5869873 0.01047363 3.91967773 0.01586914 C4.9496714 0.01799156 4.9496714 0.01799156 6.00047302 0.02015686 C8.20144949 0.0257706 10.40232557 0.03832532 12.60327148 0.05102539 C14.09220231 0.05603863 15.58113473 0.06060184 17.07006836 0.06469727 C20.72700223 0.07574446 24.38387707 0.09301826 28.04077148 0.11352539 C28.04077148 4.07352539 28.04077148 8.03352539 28.04077148 12.11352539 C17.48077148 12.11352539 6.92077148 12.11352539 -3.95922852 12.11352539 C-3.95922852 0.15188856 -3.95922852 0.15188856 0 0 Z " fill="#D4D9DA" transform="translate(7.959228515625,3.886474609375)"/>
<path d="M0 0 C7.55101981 0.47193874 12.97755273 3.59873478 18.1875 9.0625 C22.69976627 14.68737987 26.7696614 22.65949801 26 30 C23.24480437 39.20514668 18.79906326 47.35718841 10.375 52.375 C5.15527355 54.88820162 1.55370011 56.25392748 -4.3125 56.125 C-5.38113281 56.10695312 -6.44976562 56.08890625 -7.55078125 56.0703125 C-8.76314453 56.03550781 -8.76314453 56.03550781 -10 56 C-10 55.67 -10 55.34 -10 55 C-9.33613281 54.96261719 -8.67226562 54.92523438 -7.98828125 54.88671875 C-0.99169809 54.42231858 -0.99169809 54.42231858 5 51 C5.33 50.01 5.66 49.02 6 48 C7.0725 47.319375 8.145 46.63875 9.25 45.9375 C14.00371265 42.66380922 16.22552964 38.41804951 18 33 C19.00462106 26.65653562 18.15870449 20.62526258 15 15 C12.5843765 12.20296227 10.1006824 10.07830853 7.1875 7.8125 C6.465625 7.214375 5.74375 6.61625 5 6 C5 5.34 5 4.68 5 4 C3.37373596 2.61767557 1.7074998 1.28062485 0 0 Z " fill="#8AB2BB" transform="translate(82,57)"/>
<path d="M0 0 C3.20384459 0.05101663 4.45590103 0.17128111 7.25 1.875 C9.16794273 5.12716376 8.89760886 7.60057689 8.6875 11.3125 C9.0175 11.6425 9.3475 11.9725 9.6875 12.3125 C10.15818115 19.60805775 10.15818115 19.60805775 8.5234375 22.0546875 C5.96968867 23.80427712 4.12831773 23.64339229 1.0625 23.5625 C0.08023438 23.54703125 -0.90203125 23.5315625 -1.9140625 23.515625 C-4.3125 23.3125 -4.3125 23.3125 -5.3125 22.3125 C-5.41149523 20.76294441 -5.44329524 19.20896327 -5.4453125 17.65625 C-5.44660156 16.71652344 -5.44789062 15.77679688 -5.44921875 14.80859375 C-5.44535156 13.81988281 -5.44148438 12.83117187 -5.4375 11.8125 C-5.44136719 10.82378906 -5.44523437 9.83507812 -5.44921875 8.81640625 C-5.44792969 7.87667969 -5.44664063 6.93695313 -5.4453125 5.96875 C-5.44418457 5.10056641 -5.44305664 4.23238281 -5.44189453 3.33789062 C-5.20492066 -0.37142107 -3.28259491 0.10207742 0 0 Z " fill="#110C05" transform="translate(52.3125,26.6875)"/>
<path d="M0 0 C3.77875166 1.18960701 4.47775695 1.70583923 6.375 5.0625 C7.27589357 10.94083051 7.5062927 16.29901432 4.25 21.375 C0.84633072 23.37280588 -0.75501427 23.88590122 -4.625 23.0625 C-7.32480572 20.38232923 -8.5146507 18.67741194 -9.19140625 14.90625 C-9.18096936 5.97226804 -9.18096936 5.97226804 -6.5625 1.6875 C-3.625 0.0625 -3.625 0.0625 0 0 Z " fill="#120C05" transform="translate(37.625,26.9375)"/>
<path d="M0 0 C6.46711487 0.6159157 10.64978638 3.23261532 14.8125 8.125 C18.91587666 13.51800933 18.46048263 18.37947619 18 25 C15.99109313 31.38123359 11.05023553 35.4055587 5.25 38.4375 C3 39 3 39 0 38 C0.928125 37.278125 1.85625 36.55625 2.8125 35.8125 C7.49163578 31.90586305 9.61347483 27.72584916 10.23828125 21.703125 C10.42337152 15.58540441 9.67042485 11.00512479 6 6 C4.09469679 4.13187344 2.14274171 2.60705628 0 1 C0 0.67 0 0.34 0 0 Z " fill="#F6B04C" transform="translate(79,65)"/>
<path d="M0 0 C10.80458085 -0.02312312 21.60915586 -0.04091493 32.41375637 -0.05181217 C37.4302247 -0.05704107 42.44667615 -0.06413883 47.46313477 -0.07543945 C52.30009694 -0.0862681 57.13704284 -0.09227679 61.97401619 -0.09487724 C63.82368285 -0.09673153 65.67334857 -0.10035222 67.52300835 -0.10573006 C70.10447014 -0.1129402 72.68586382 -0.11399095 75.26733398 -0.11352539 C76.03985001 -0.11712067 76.81236603 -0.12071594 77.60829163 -0.12442017 C82.88594784 -0.11405216 82.88594784 -0.11405216 84 1 C84.07226502 2.85287502 84.0838122 4.70833878 84.0625 6.5625 C84.05347656 7.57441406 84.04445313 8.58632812 84.03515625 9.62890625 C84.02355469 10.41136719 84.01195313 11.19382812 84 12 C81.03 12 78.06 12 75 12 C75 8.37 75 4.74 75 1 C50.25 1 25.5 1 0 1 C0 0.67 0 0.34 0 0 Z " fill="#9FBFC2" transform="translate(40,4)"/>
<path d="M0 0 C1.64574566 -0.02688151 3.29161413 -0.04634123 4.9375 -0.0625 C5.85402344 -0.07410156 6.77054688 -0.08570312 7.71484375 -0.09765625 C10 0 10 0 11 1 C11.20785733 3.76747182 11.32462012 6.47910658 11.375 9.25 C11.41238281 10.01441406 11.44976562 10.77882813 11.48828125 11.56640625 C11.55492412 15.85376403 11.38473038 17.50313714 8.66796875 21.01171875 C6 23 6 23 2.9375 23.5625 C-0 23 -0 23 -2.375 21.4375 C-4.54455002 18.18317497 -4.29451507 15.82869586 -4 12 C-3.01 12 -2.02 12 -1 12 C-0.34 13.98 0.32 15.96 1 18 C2.65 18.33 4.3 18.66 6 19 C6.33 14.05 6.66 9.1 7 4 C4.36 4 1.72 4 -1 4 C-0.67 2.68 -0.34 1.36 0 0 Z " fill="#120D05" transform="translate(15,27)"/>
<path d="M0 0 C15.18 0 30.36 0 46 0 C46 0.99 46 1.98 46 3 C30.82 3 15.64 3 0 3 C0 2.01 0 1.02 0 0 Z " fill="#000000" transform="translate(71,43)"/>
<path d="M0 0 C2.4375 0.75 2.4375 0.75 4.4375 2.75 C5.0703125 5.1328125 5.0703125 5.1328125 5.5625 7.875 C5.73007813 8.78507812 5.89765625 9.69515625 6.0703125 10.6328125 C6.25207031 11.68082031 6.25207031 11.68082031 6.4375 12.75 C4.83022673 12.52082032 3.22662584 12.26579198 1.625 12 C0.73167969 11.86078125 -0.16164063 11.7215625 -1.08203125 11.578125 C-4.10854932 10.56769692 -5.01998559 9.50485851 -6.5625 6.75 C-6.4375 4.125 -6.4375 4.125 -5.5625 1.75 C-2.5625 -0.25 -2.5625 -0.25 0 0 Z " fill="#23190A" transform="translate(109.5625,27.25)"/>
<path d="M0 0 C4.70588235 0.70588235 4.70588235 0.70588235 6 2 C6.09873816 3.99799572 6.12971799 5.99957158 6.125 8 C6.12757812 9.093125 6.13015625 10.18625 6.1328125 11.3125 C6 14 6 14 5 15 C2.5 15.125 2.5 15.125 0 15 C-1 14 -1 14 -1.1328125 11.09375 C-1.13023438 9.9078125 -1.12765625 8.721875 -1.125 7.5 C-1.12757812 6.3140625 -1.13015625 5.128125 -1.1328125 3.90625 C-1 1 -1 1 0 0 Z " fill="#F6AF4B" transform="translate(34,31)"/>
<path d="M0 0 C6.6 0 13.2 0 20 0 C20 1.32 20 2.64 20 4 C13.07 4 6.14 4 -1 4 C-0.67 2.68 -0.34 1.36 0 0 Z " fill="#161006" transform="translate(15,66)"/>
<path d="M0 0 C1.32 0.66 2.64 1.32 4 2 C3.09515208 3.15518918 2.1755794 4.29885406 1.25 5.4375 C0.73953125 6.07558594 0.2290625 6.71367188 -0.296875 7.37109375 C-2.19667629 9.18810554 -3.43586908 9.60423197 -6 10 C-6 6 -6 6 -4.6875 4.296875 C-4.130625 3.78640625 -3.57375 3.2759375 -3 2.75 C-2.1646875 1.96882813 -2.1646875 1.96882813 -1.3125 1.171875 C-0.879375 0.78515625 -0.44625 0.3984375 0 0 Z " fill="#21E7A1" transform="translate(110,110)"/>
<path d="M0 0 C2.31 0 4.62 0 7 0 C7 1.98 7 3.96 7 6 C4.69 6 2.38 6 0 6 C0 4.02 0 2.04 0 0 Z " fill="#F8B14B" transform="translate(51,40)"/>
<path d="M0 0 C1.65 0 3.3 0 5 0 C5.5625 1.9375 5.5625 1.9375 6 4 C5 5 5 5 2.4375 5.0625 C1.2309375 5.0315625 1.2309375 5.0315625 0 5 C0 3.35 0 1.7 0 0 Z " fill="#F7B04B" transform="translate(51,31)"/>
<path d="M0 0 C1.32 0.66 2.64 1.32 4 2 C4 2.99 4 3.98 4 5 C2.68 5 1.36 5 0 5 C-0.5625 3.0625 -0.5625 3.0625 -1 1 C-0.67 0.67 -0.34 0.34 0 0 Z " fill="#456368" transform="translate(113,118)"/>
<path d="M0 0 C0.99 0.66 1.98 1.32 3 2 C2.34 3.32 1.68 4.64 1 6 C0.01 5.34 -0.98 4.68 -2 4 C-1.34 2.68 -0.68 1.36 0 0 Z " fill="#466368" transform="translate(102,106)"/>
<path d="M0 0 C1.32 0.66 2.64 1.32 4 2 C3.01 2.99 2.02 3.98 1 5 C0.01 4.01 -0.98 3.02 -2 2 C-1.34 1.34 -0.68 0.68 0 0 Z " fill="#25CF90" transform="translate(110,110)"/>
</svg>
