<?xml version="1.0" encoding="UTF-8"?>
<svg version="1.1" xmlns="http://www.w3.org/2000/svg" width="128" height="128">
<path d="M0 0 C1.14680237 -0.07408585 2.29360474 -0.14817169 3.47515869 -0.22450256 C8.09536287 -0.45364663 12.7156822 -0.63758133 17.33975601 -0.76390171 C20.83155395 -0.86048926 24.30825816 -0.99942416 27.79248047 -1.25292969 C42.2251373 -2.27293403 55.85703947 -1.79516709 67.29850388 8.08012962 C77.41076975 17.55676991 80.25433601 27.66893487 80.73265076 41.28401756 C80.85215218 48.81042267 80.55956391 56.30382061 80.17895508 63.8190918 C80.00521914 67.71747673 79.9317592 71.61490011 79.8628788 75.51634407 C79.72020051 83.57304907 79.51461424 91.62944245 79.13037109 99.6784668 C79.10502289 100.40981842 79.07967468 101.14117004 79.05355835 101.89468384 C78.81669698 106.20824214 78.15850962 109.19591605 75.42480469 112.59204102 C72.23730469 113.40454102 72.23730469 113.40454102 69.42480469 113.59204102 C69.34230469 114.52016602 69.25980469 115.44829102 69.17480469 116.40454102 C68.42480469 119.59204102 68.42480469 119.59204102 66.61230469 121.46704102 C64.42480469 122.59204102 64.42480469 122.59204102 60.42480469 122.59204102 C60.13605469 123.39641602 59.84730469 124.20079102 59.54980469 125.02954102 C58.42480469 127.59204102 58.42480469 127.59204102 56.42480469 128.59204102 C53.91379162 128.71092158 51.42962078 128.77034389 48.91748047 128.78491211 C48.14332794 128.7930896 47.36917542 128.80126709 46.57156372 128.80969238 C44.00442279 128.83454736 41.43733709 128.85106123 38.87011719 128.86547852 C37.99433895 128.87080219 37.11856071 128.87612587 36.21624374 128.88161087 C31.58215968 128.90834095 26.94810256 128.92771762 22.31396484 128.94213867 C17.52293469 128.9588003 12.73259058 129.00359068 7.94182014 129.05451012 C4.26153758 129.08812977 0.58141906 129.09971017 -3.09900284 129.10536575 C-4.86529925 129.11209126 -6.63158439 129.12734702 -8.39773178 129.15125656 C-10.86875482 129.18280384 -13.3379113 129.1829616 -15.80908203 129.17553711 C-16.53961792 129.19194244 -17.27015381 129.20834778 -18.02282715 129.22525024 C-21.75995514 129.17924557 -23.28058525 128.87199535 -26.03120422 126.25820923 C-27.99356231 122.86960369 -28.04845024 120.61984908 -28.00097656 116.71704102 C-27.9884082 114.74477539 -27.9884082 114.74477539 -27.97558594 112.73266602 C-27.94631374 111.35245716 -27.91701663 109.97224883 -27.88769531 108.59204102 C-27.87619369 107.21184606 -27.86641156 105.83163564 -27.85839844 104.45141602 C-27.745499 94.43772663 -27.745499 94.43772663 -26.99780273 90.72485352 C-26.85834229 90.02102539 -26.71888184 89.31719727 -26.57519531 88.59204102 C-26.90519531 88.26204102 -27.23519531 87.93204102 -27.57519531 87.59204102 C-27.68510432 85.56338158 -27.72431982 83.53086668 -27.73632812 81.49926758 C-27.74593567 80.19411194 -27.75554321 78.8889563 -27.76544189 77.54425049 C-27.77029047 76.10705743 -27.77456915 74.66986236 -27.77832031 73.23266602 C-27.78407054 71.76633705 -27.78982829 70.30000811 -27.79559326 68.8336792 C-27.80611504 65.75345508 -27.81194938 62.67325715 -27.81542969 59.59301758 C-27.8209044 55.65081979 -27.84490514 51.70896917 -27.87340164 47.76688004 C-27.89205443 44.73507693 -27.89723511 41.70335679 -27.89876556 38.67150116 C-27.90178877 37.2186672 -27.90980614 35.76583459 -27.92295074 34.31305695 C-27.94005774 32.2762386 -27.93627946 30.23927748 -27.93164062 28.20239258 C-27.93528625 27.04402893 -27.93893188 25.88566528 -27.94268799 24.69219971 C-27.53150795 21.22349557 -26.7301826 19.32669286 -24.57519531 16.59204102 C-23.05925781 16.34454102 -23.05925781 16.34454102 -21.51269531 16.09204102 C-20.54332031 15.92704102 -19.57394531 15.76204102 -18.57519531 15.59204102 C-17.40566116 13.16821025 -17.40566116 13.16821025 -16.57519531 10.59204102 C-13.9712808 8.82809893 -12.76739235 8.59204102 -9.57519531 8.59204102 C-9.47207031 7.64329102 -9.36894531 6.69454102 -9.26269531 5.71704102 C-8.08779622 0.37659058 -4.85096325 0.31259705 0 0 Z " fill="#ECEAEC" transform="translate(38.5751953125,-0.592041015625)"/>
<path d="M0 0 C1.14680237 -0.07408585 2.29360474 -0.14817169 3.47515869 -0.22450256 C8.09536287 -0.45364663 12.7156822 -0.63758133 17.33975601 -0.76390171 C20.83155395 -0.86048926 24.30825816 -0.99942416 27.79248047 -1.25292969 C42.2251373 -2.27293403 55.85703947 -1.79516709 67.29850388 8.08012962 C77.41076975 17.55676991 80.25433601 27.66893487 80.73265076 41.28401756 C80.85215218 48.81042267 80.55956391 56.30382061 80.17895508 63.8190918 C80.00521914 67.71747673 79.9317592 71.61490011 79.8628788 75.51634407 C79.72020051 83.57304907 79.51461424 91.62944245 79.13037109 99.6784668 C79.10502289 100.40981842 79.07967468 101.14117004 79.05355835 101.89468384 C78.81669698 106.20824214 78.15850962 109.19591605 75.42480469 112.59204102 C72.23730469 113.40454102 72.23730469 113.40454102 69.42480469 113.59204102 C69.34230469 114.52016602 69.25980469 115.44829102 69.17480469 116.40454102 C68.42480469 119.59204102 68.42480469 119.59204102 66.61230469 121.46704102 C64.42480469 122.59204102 64.42480469 122.59204102 60.42480469 122.59204102 C60.13605469 123.39641602 59.84730469 124.20079102 59.54980469 125.02954102 C58.42480469 127.59204102 58.42480469 127.59204102 56.42480469 128.59204102 C53.91379162 128.71092158 51.42962078 128.77034389 48.91748047 128.78491211 C48.14332794 128.7930896 47.36917542 128.80126709 46.57156372 128.80969238 C44.00442279 128.83454736 41.43733709 128.85106123 38.87011719 128.86547852 C37.99433895 128.87080219 37.11856071 128.87612587 36.21624374 128.88161087 C31.58215968 128.90834095 26.94810256 128.92771762 22.31396484 128.94213867 C17.52293469 128.9588003 12.73259058 129.00359068 7.94182014 129.05451012 C4.26153758 129.08812977 0.58141906 129.09971017 -3.09900284 129.10536575 C-4.86529925 129.11209126 -6.63158439 129.12734702 -8.39773178 129.15125656 C-10.86875482 129.18280384 -13.3379113 129.1829616 -15.80908203 129.17553711 C-16.53961792 129.19194244 -17.27015381 129.20834778 -18.02282715 129.22525024 C-21.75657879 129.17928713 -23.28104399 128.87085289 -26.03219604 126.26316833 C-28.02032974 122.82145689 -28.03323315 120.50176397 -27.96582031 116.54125977 C-27.96016052 115.88245316 -27.95450073 115.22364655 -27.94866943 114.5448761 C-27.92640771 112.45566886 -27.87623861 110.36822328 -27.82519531 108.27954102 C-27.80511675 106.85703988 -27.78686835 105.43451165 -27.77050781 104.01196289 C-27.7265789 100.53809021 -27.65762627 97.06523776 -27.57519531 93.59204102 C-25.63769531 93.02954102 -25.63769531 93.02954102 -23.57519531 92.59204102 C-16.25323443 99.91400189 -21.92016426 113.24297252 -21.57519531 123.59204102 C4.16480469 123.59204102 29.90480469 123.59204102 56.42480469 123.59204102 C56.42480469 122.93204102 56.42480469 122.27204102 56.42480469 121.59204102 C52.13480469 121.59204102 47.84480469 121.59204102 43.42480469 121.59204102 C43.42480469 120.60204102 43.42480469 119.61204102 43.42480469 118.59204102 C53.81980469 118.09704102 53.81980469 118.09704102 64.42480469 117.59204102 C64.42480469 116.27204102 64.42480469 114.95204102 64.42480469 113.59204102 C63.14480339 113.61202652 63.14480339 113.61202652 61.83894348 113.63241577 C53.79089811 113.7527162 45.74315532 113.84402724 37.694417 113.90291405 C33.55654816 113.93420688 29.41942315 113.97663982 25.28198242 114.04467773 C21.28783059 114.10994711 17.29439339 114.14576248 13.29974937 114.16130447 C11.77704302 114.17237758 10.25437512 114.19400205 8.73197365 114.22642136 C6.59593344 114.27009238 4.46283195 114.2759717 2.32641602 114.27319336 C1.11174149 114.28651703 -0.10293304 114.2998407 -1.35441589 114.31356812 C-4.92176041 113.51440263 -6.51906714 112.35014279 -8.66654491 109.38083458 C-10.23662394 106.28993487 -10.22973578 103.21937515 -10.14282227 99.8425293 C-10.1435524 99.0906282 -10.14428253 98.33872711 -10.14503479 97.56404114 C-10.14157071 95.09605998 -10.10276962 92.63000201 -10.06347656 90.16235352 C-10.05414414 88.44458039 -10.04703005 86.72679391 -10.04203796 85.00900269 C-10.02300174 80.5008837 -9.97393078 75.99357784 -9.91851807 71.48577881 C-9.86725224 66.88068642 -9.84450832 62.27546188 -9.81933594 57.67016602 C-9.76580818 48.64376826 -9.68053686 39.61797241 -9.57519531 30.59204102 C-8.25519531 30.59204102 -6.93519531 30.59204102 -5.57519531 30.59204102 C-5.56488785 31.55448227 -5.55458038 32.51692352 -5.54396057 33.50852966 C-5.44639512 42.5587119 -5.34367749 51.60882278 -5.23585606 60.65888882 C-5.18058524 65.3121187 -5.12715873 69.96535483 -5.07788086 74.61865234 C-5.03029846 79.10554218 -4.97795814 83.59235314 -4.92225456 88.07914925 C-4.90180316 89.79482127 -4.88309478 91.51051494 -4.86612129 93.2262249 C-4.84213866 95.6209487 -4.81207619 98.01552204 -4.78051758 100.41015625 C-4.77188438 101.48477364 -4.77188438 101.48477364 -4.76307678 102.58110046 C-4.99281356 105.8696105 -4.99281356 105.8696105 -3.57519531 108.59204102 C-1.17167072 108.68700974 1.20287562 108.71761655 3.60668945 108.70556641 C4.37004828 108.70568694 5.13340712 108.70580748 5.91989803 108.70593166 C8.40203151 108.70518257 10.88409081 108.69755452 13.36621094 108.68969727 C14.89416467 108.68822784 16.42211891 108.68720713 17.95007324 108.68664551 C23.62915804 108.68139275 29.30823209 108.66743167 34.98730469 108.65454102 C47.67167969 108.63391602 60.35605469 108.61329102 73.42480469 108.59204102 C73.42480469 81.53204102 73.42480469 54.47204102 73.42480469 26.59204102 C67.81480469 26.59204102 62.20480469 26.59204102 56.42480469 26.59204102 C51.42480469 21.59204102 51.42480469 21.59204102 50.85717773 19.46386719 C50.88336182 18.77784424 50.9095459 18.09182129 50.93652344 17.38500977 C50.95263672 16.63413086 50.96875 15.88325195 50.98535156 15.10961914 C51.02724609 14.34069336 51.06914063 13.57176758 51.11230469 12.77954102 C51.13486328 11.9912793 51.15742187 11.20301758 51.18066406 10.39086914 C51.23926308 8.45710173 51.32893641 6.52431934 51.42480469 4.59204102 C43.61015279 4.70931895 35.79564839 4.83415502 27.98120117 4.96435547 C25.32042203 5.00778282 22.65961361 5.04945191 19.9987793 5.08935547 C16.18366653 5.14686973 12.36870227 5.21061769 8.55371094 5.27563477 C6.75686607 5.30070351 6.75686607 5.30070351 4.92372131 5.32627869 C3.27212257 5.35619652 3.27212257 5.35619652 1.5871582 5.38671875 C0.12488548 5.41003517 0.12488548 5.41003517 -1.3669281 5.43382263 C-3.54938099 5.34797156 -3.54938099 5.34797156 -4.57519531 6.59204102 C-4.73101835 7.93219323 -4.82563673 9.27963005 -4.89160156 10.62719727 C-4.93349609 11.43608398 -4.97539063 12.2449707 -5.01855469 13.07836914 C-5.05787109 13.92850586 -5.0971875 14.77864258 -5.13769531 15.65454102 C-5.18087891 16.50854492 -5.2240625 17.36254883 -5.26855469 18.24243164 C-5.37496233 20.35876139 -5.47561262 22.47537914 -5.57519531 24.59204102 C-6.89519531 24.59204102 -8.21519531 24.59204102 -9.57519531 24.59204102 C-9.57519531 20.96204102 -9.57519531 17.33204102 -9.57519531 13.59204102 C-11.55519531 14.58204102 -11.55519531 14.58204102 -13.57519531 15.59204102 C-13.59832672 28.59587668 -13.61611449 41.59970748 -13.62700748 54.60355949 C-13.63223456 60.64123128 -13.63932904 66.67888903 -13.65063477 72.71655273 C-13.66146985 78.53906518 -13.66747348 84.3615641 -13.67007256 90.18408585 C-13.67192568 92.40972227 -13.67554414 94.63535793 -13.68092537 96.86098862 C-13.68814401 99.96910983 -13.6891859 103.07717454 -13.6887207 106.18530273 C-13.69231598 107.11318604 -13.69591125 108.04106934 -13.69961548 108.99707031 C-13.69824081 109.84123505 -13.69686615 110.68539978 -13.69544983 111.55514526 C-13.69683252 112.65853147 -13.69683252 112.65853147 -13.69824314 113.7842083 C-13.68494767 115.69373944 -13.68494767 115.69373944 -12.57519531 117.59204102 C4.25480469 117.92204102 21.08480469 118.25204102 38.42480469 118.59204102 C38.42480469 119.58204102 38.42480469 120.57204102 38.42480469 121.59204102 C30.93178789 121.66798084 23.43886998 121.72059434 15.94555664 121.75683594 C13.39538871 121.77194107 10.84524682 121.79242635 8.29516602 121.81835938 C4.6338865 121.85466606 0.97294984 121.87175017 -2.68847656 121.88500977 C-3.83230301 121.90049362 -4.97612946 121.91597748 -6.15461731 121.93193054 C-7.7459272 121.93227043 -7.7459272 121.93227043 -9.36938477 121.93261719 C-10.30426224 121.93927902 -11.23913971 121.94594086 -12.2023468 121.95280457 C-15.09024179 121.51373429 -15.78527014 120.8517141 -17.57519531 118.59204102 C-17.9443388 116.67677784 -17.9443388 116.67677784 -17.93595886 114.47285461 C-17.94008286 113.63572937 -17.94420685 112.79860413 -17.94845581 111.93611145 C-17.93766998 111.02117416 -17.92688416 110.10623688 -17.91577148 109.16357422 C-17.91620956 108.19753265 -17.91664764 107.23149109 -17.917099 106.23617554 C-17.91500642 103.03818661 -17.89165292 99.84071978 -17.86816406 96.64282227 C-17.86256979 94.42750841 -17.8582989 92.21219084 -17.8553009 89.99687195 C-17.84383892 84.16228005 -17.81435993 78.3279117 -17.78118896 72.4934082 C-17.75051734 66.54129053 -17.73680178 60.58913679 -17.72167969 54.63696289 C-17.68949166 42.95522397 -17.63827884 31.27365107 -17.57519531 19.59204102 C-18.89519531 19.92204102 -20.21519531 20.25204102 -21.57519531 20.59204102 C-21.90519531 42.70204102 -22.23519531 64.81204102 -22.57519531 87.59204102 C-24.55519531 88.08704102 -24.55519531 88.08704102 -26.57519531 88.59204102 C-28.39265136 86.77458497 -27.7218778 83.94401514 -27.73632812 81.49926758 C-27.74593567 80.19411194 -27.75554321 78.8889563 -27.76544189 77.54425049 C-27.77029047 76.10705743 -27.77456915 74.66986236 -27.77832031 73.23266602 C-27.78407054 71.76633705 -27.78982829 70.30000811 -27.79559326 68.8336792 C-27.80611504 65.75345508 -27.81194938 62.67325715 -27.81542969 59.59301758 C-27.8209044 55.65081979 -27.84490514 51.70896917 -27.87340164 47.76688004 C-27.89205443 44.73507693 -27.89723511 41.70335679 -27.89876556 38.67150116 C-27.90178877 37.2186672 -27.90980614 35.76583459 -27.92295074 34.31305695 C-27.94005774 32.2762386 -27.93627946 30.23927748 -27.93164062 28.20239258 C-27.93528625 27.04402893 -27.93893188 25.88566528 -27.94268799 24.69219971 C-27.53150795 21.22349557 -26.7301826 19.32669286 -24.57519531 16.59204102 C-23.05925781 16.34454102 -23.05925781 16.34454102 -21.51269531 16.09204102 C-20.54332031 15.92704102 -19.57394531 15.76204102 -18.57519531 15.59204102 C-17.40566116 13.16821025 -17.40566116 13.16821025 -16.57519531 10.59204102 C-13.9712808 8.82809893 -12.76739235 8.59204102 -9.57519531 8.59204102 C-9.47207031 7.64329102 -9.36894531 6.69454102 -9.26269531 5.71704102 C-8.08779622 0.37659058 -4.85096325 0.31259705 0 0 Z " fill="#0B0C09" transform="translate(38.5751953125,-0.592041015625)"/>
<path d="M0 0 C0.99 0 1.98 0 3 0 C3 3.63 3 7.26 3 11 C3.99 11.33 4.98 11.66 6 12 C5.67599213 12.66914429 5.35198425 13.33828857 5.01815796 14.02770996 C3.79844698 17.58839007 3.70461993 20.84001465 3.70947266 24.55664062 C3.70275543 25.30036423 3.69603821 26.04408783 3.68911743 26.81034851 C3.67018087 29.259051 3.6662159 31.70747893 3.6640625 34.15625 C3.65763309 35.86348584 3.65090462 37.57072057 3.64389038 39.2779541 C3.63192962 42.85215816 3.62820847 46.42626563 3.62939453 50.00048828 C3.62959801 54.5771621 3.60226132 59.15321696 3.56785011 63.72974396 C3.54560247 67.25395548 3.54155628 70.77801731 3.54261398 74.30229187 C3.54025613 75.98957967 3.5314222 77.67687147 3.51594925 79.36408997 C3.49632551 81.72428726 3.50211129 84.08313987 3.51416016 86.44335938 C3.49730164 87.48462227 3.49730164 87.48462227 3.48010254 88.54692078 C3.52340813 91.88963942 3.99181987 93.98507165 5.60610962 96.93107605 C8.78478387 99.67825083 10.61552887 99.63658136 14.78808594 99.65942383 C15.46166641 99.66990753 16.13524689 99.68039124 16.82923889 99.69119263 C19.04808775 99.71991615 21.26537375 99.71365535 23.484375 99.70703125 C25.02567498 99.72014814 26.56695777 99.73545234 28.10821533 99.75285339 C32.15904805 99.7927184 36.20943127 99.80289471 40.26043701 99.80688477 C44.39641977 99.81621352 48.5321381 99.85362533 52.66796875 99.88867188 C60.77865067 99.95326283 68.88907292 99.98649038 77 100 C77 101.32 77 102.64 77 104 C74.65147472 105.17426264 73.26225935 105.11508173 70.6484375 105.09765625 C69.37226563 105.09282227 69.37226563 105.09282227 68.0703125 105.08789062 C67.18085937 105.07951172 66.29140625 105.07113281 65.375 105.0625 C64.4778125 105.05798828 63.580625 105.05347656 62.65625 105.04882812 C60.43743352 105.03702591 58.21874982 105.02056155 56 105 C56 105.99 56 106.98 56 108 C60.29 108 64.58 108 69 108 C69 108.66 69 109.32 69 110 C66.04516435 111.47741782 63.05117948 111.13873544 59.81225586 111.12939453 C59.07229874 111.13114685 58.33234161 111.13289917 57.56996155 111.13470459 C55.11823193 111.13911457 52.66657413 111.13618841 50.21484375 111.1328125 C48.51615892 111.13348571 46.81747418 111.13445588 45.11878967 111.13571167 C41.556967 111.13718743 37.99516938 111.13503773 34.43334961 111.13037109 C29.85755136 111.12466955 25.2818117 111.12795627 20.70601559 111.13394356 C17.19828343 111.13754877 13.69056528 111.13641085 10.18283272 111.13381577 C8.49505163 111.13314661 6.80726929 111.13397453 5.11948967 111.13629532 C2.7657418 111.13882166 0.41209027 111.13498174 -1.94165039 111.12939453 C-2.99752853 111.13243088 -2.99752853 111.13243088 -4.07473755 111.13552856 C-8.88573636 111.11426364 -8.88573636 111.11426364 -10 110 C-10.15873955 107.78312006 -10.25133837 105.56144702 -10.31640625 103.33984375 C-10.33718735 102.67537735 -10.35796844 102.01091095 -10.37937927 101.3263092 C-10.44493658 99.19681457 -10.50378785 97.06719332 -10.5625 94.9375 C-10.60567939 93.49673153 -10.64929349 92.05597601 -10.69335938 90.61523438 C-10.80062393 87.0769596 -10.90187371 83.53854131 -11 80 C-11.66 79.67 -12.32 79.34 -13 79 C-12.67 77.35 -12.34 75.7 -12 74 C-11.34 74 -10.68 74 -10 74 C-10 51.89 -10 29.78 -10 7 C-8.35 6.67 -6.7 6.34 -5 6 C-4.99191315 7.23583832 -4.98382629 8.47167664 -4.97549438 9.7449646 C-4.89813627 21.37018983 -4.81042348 32.99529654 -4.71247292 44.62036705 C-4.6624465 50.59747352 -4.61611716 56.57456177 -4.578125 62.55175781 C-4.54135221 68.31600684 -4.4950144 74.08010568 -4.44193649 79.84422684 C-4.42334985 82.0475057 -4.40825783 84.25081681 -4.39665604 86.45414352 C-4.37986646 89.53127296 -4.35084948 92.60805517 -4.31884766 95.68505859 C-4.31668747 96.60359116 -4.31452728 97.52212372 -4.31230164 98.4684906 C-4.29555641 99.72211647 -4.29555641 99.72211647 -4.2784729 101.00106812 C-4.27294214 101.72928457 -4.26741138 102.45750103 -4.26171303 103.20778465 C-4.14533902 105.25300266 -4.14533902 105.25300266 -2 107 C0.34409571 107.33116738 0.34409571 107.33116738 3.09228516 107.31884766 C4.15323395 107.33871735 5.21418274 107.35858704 6.30728149 107.37905884 C7.45626923 107.39061005 8.60525696 107.40216125 9.7890625 107.4140625 C10.96262299 107.43342865 12.13618347 107.4527948 13.3453064 107.4727478 C17.10512961 107.53267664 20.86498323 107.57898246 24.625 107.625 C27.16928442 107.6631675 29.71355575 107.70221849 32.2578125 107.7421875 C38.50509241 107.83838905 44.75245072 107.92339738 51 108 C51 107.01 51 106.02 51 105 C50.36550934 105.00666183 49.73101868 105.01332367 49.07730103 105.02018738 C42.49168957 105.08640091 35.90617219 105.13174223 29.3203125 105.16479492 C26.86031252 105.17990988 24.40033959 105.20040227 21.94042969 105.22631836 C18.41073948 105.2625823 14.88140456 105.27969914 11.3515625 105.29296875 C10.24632233 105.30845261 9.14108215 105.32393646 8.00234985 105.33988953 C6.98144257 105.34011612 5.96053528 105.34034271 4.90869141 105.34057617 C4.00712311 105.34723801 3.10555481 105.35389984 2.17666626 105.36076355 C1.45836639 105.24171158 0.74006653 105.12265961 0 105 C-2.04748896 101.92876655 -2.25040377 101.3159506 -2.25396729 97.85630798 C-2.26242676 96.59233437 -2.26242676 96.59233437 -2.27105713 95.30282593 C-2.26700867 94.38167999 -2.26296021 93.46053406 -2.25878906 92.51147461 C-2.2622937 91.53889206 -2.26579834 90.56630951 -2.26940918 89.56425476 C-2.27822505 86.34354555 -2.27237824 83.12305526 -2.265625 79.90234375 C-2.26697158 77.66939756 -2.26891205 75.43645165 -2.27142334 73.20350647 C-2.27437432 68.52195446 -2.27007735 63.84047871 -2.26074219 59.15893555 C-2.24934113 53.1472184 -2.2559115 47.13567969 -2.26788712 41.12396908 C-2.27510077 36.51301215 -2.27282017 31.90209779 -2.26763153 27.2911396 C-2.26629401 25.07387839 -2.26794632 22.85661336 -2.27259064 20.63935661 C-2.27764844 17.54584323 -2.26995638 14.45262236 -2.25878906 11.35913086 C-2.26283752 10.43596069 -2.26688599 9.51279053 -2.27105713 8.56164551 C-2.26541748 7.72181625 -2.25977783 6.881987 -2.25396729 6.01670837 C-2.25321323 5.28501403 -2.25245918 4.55331968 -2.25168228 3.79945278 C-2 2 -2 2 0 0 Z " fill="#F0C601" transform="translate(26,13)"/>
<path d="M0 0 C1.32 0 2.64 0 4 0 C4.00808685 1.23583832 4.01617371 2.47167664 4.02450562 3.7449646 C4.10186373 15.37018983 4.18957652 26.99529654 4.28752708 38.62036705 C4.3375535 44.59747352 4.38388284 50.57456177 4.421875 56.55175781 C4.45864779 62.31600684 4.5049856 68.08010568 4.55806351 73.84422684 C4.57665015 76.0475057 4.59174217 78.25081681 4.60334396 80.45414352 C4.62013354 83.53127296 4.64915052 86.60805517 4.68115234 89.68505859 C4.68331253 90.60359116 4.68547272 91.52212372 4.68769836 92.4684906 C4.70444359 93.72211647 4.70444359 93.72211647 4.7215271 95.00106812 C4.72705786 95.72928457 4.73258862 96.45750103 4.73828697 97.20778465 C4.85466098 99.25300266 4.85466098 99.25300266 7 101 C9.34409571 101.33116738 9.34409571 101.33116738 12.09228516 101.31884766 C13.15323395 101.33871735 14.21418274 101.35858704 15.30728149 101.37905884 C16.45626923 101.39061005 17.60525696 101.40216125 18.7890625 101.4140625 C19.96262299 101.43342865 21.13618347 101.4527948 22.3453064 101.4727478 C26.10512961 101.53267664 29.86498323 101.57898246 33.625 101.625 C36.16928442 101.6631675 38.71355575 101.70221849 41.2578125 101.7421875 C47.50509241 101.83838905 53.75245072 101.92339738 60 102 C60.33 101.34 60.66 100.68 61 100 C61.78117187 100.23009766 61.78117187 100.23009766 62.578125 100.46484375 C65.63278515 101.13982511 68.63015971 101.34411118 71.75 101.5625 C73.50570312 101.68818359 73.50570312 101.68818359 75.296875 101.81640625 C76.18890625 101.87699219 77.0809375 101.93757813 78 102 C78 102.66 78 103.32 78 104 C75.04516435 105.47741782 72.05117948 105.13873544 68.81225586 105.12939453 C68.07229874 105.13114685 67.33234161 105.13289917 66.56996155 105.13470459 C64.11823193 105.13911457 61.66657413 105.13618841 59.21484375 105.1328125 C57.51615892 105.13348571 55.81747418 105.13445588 54.11878967 105.13571167 C50.556967 105.13718743 46.99516938 105.13503773 43.43334961 105.13037109 C38.85755136 105.12466955 34.2818117 105.12795627 29.70601559 105.13394356 C26.19828343 105.13754877 22.69056528 105.13641085 19.18283272 105.13381577 C17.49505163 105.13314661 15.80726929 105.13397453 14.11948967 105.13629532 C11.7657418 105.13882166 9.41209027 105.13498174 7.05834961 105.12939453 C6.00247147 105.13243088 6.00247147 105.13243088 4.92526245 105.13552856 C0.11426364 105.11426364 0.11426364 105.11426364 -1 104 C-1.15873955 101.78312006 -1.25133837 99.56144702 -1.31640625 97.33984375 C-1.33718735 96.67537735 -1.35796844 96.01091095 -1.37937927 95.3263092 C-1.44493658 93.19681457 -1.50378785 91.06719332 -1.5625 88.9375 C-1.60567939 87.49673153 -1.64929349 86.05597601 -1.69335938 84.61523438 C-1.80062393 81.0769596 -1.90187371 77.53854131 -2 74 C-2.66 73.67 -3.32 73.34 -4 73 C-3.67 71.35 -3.34 69.7 -3 68 C-2.34 68 -1.68 68 -1 68 C-1.00222061 67.16283951 -1.00444122 66.32567902 -1.00672913 65.46315002 C-1.02673032 57.59032586 -1.04197325 49.71751017 -1.05181217 41.84466648 C-1.05704041 37.79674258 -1.06413699 33.74883959 -1.07543945 29.70092773 C-1.08627043 25.79764029 -1.09227728 21.89437301 -1.09487724 17.9910717 C-1.09673111 16.49866353 -1.100351 15.00625652 -1.10573006 13.51385689 C-1.11294331 11.43051861 -1.11399083 9.34726469 -1.11352539 7.26391602 C-1.115746 6.07588882 -1.11796661 4.88786163 -1.12025452 3.66383362 C-1 1 -1 1 0 0 Z " fill="#7EBAEC" transform="translate(17,19)"/>
<path d="M0 0 C1.65 0 3.3 0 5 0 C5 27.06 5 54.12 5 82 C2.06291999 83.46854 -0.89343705 83.13019549 -4.11181641 83.11352539 C-5.20953117 83.11374443 -5.20953117 83.11374443 -6.329422 83.1139679 C-8.75349876 83.11327003 -11.17749912 83.10548354 -13.6015625 83.09765625 C-15.28022215 83.09579162 -16.95888234 83.09436793 -18.63754272 83.09336853 C-23.05987038 83.08954688 -27.48216528 83.07971959 -31.90447998 83.06866455 C-36.41548215 83.05844286 -40.92648959 83.05386928 -45.4375 83.04882812 C-54.29168107 83.03809702 -63.14583781 83.02102481 -72 83 C-72 82.67 -72 82.34 -72 82 C-36.855 81.505 -36.855 81.505 -1 81 C-0.67 54.27 -0.34 27.54 0 0 Z " fill="#D7D1D6" transform="translate(107,26)"/>
<path d="M0 0 C17.16 0 34.32 0 52 0 C52 1.32 52 2.64 52 4 C34.51 4 17.02 4 -1 4 C-0.67 2.68 -0.34 1.36 0 0 Z " fill="#151515" transform="translate(47,68)"/>
<path d="M0 0 C17.16 0 34.32 0 52 0 C52 1.32 52 2.64 52 4 C34.51 4 17.02 4 -1 4 C-0.67 2.68 -0.34 1.36 0 0 Z " fill="#1D1D1D" transform="translate(47,54)"/>
<path d="M0 0 C22.11 0 44.22 0 67 0 C67 0.66 67 1.32 67 2 C64.65147472 3.17426264 63.26225935 3.11508173 60.6484375 3.09765625 C59.37226563 3.09282227 59.37226563 3.09282227 58.0703125 3.08789062 C57.18085937 3.07951172 56.29140625 3.07113281 55.375 3.0625 C54.4778125 3.05798828 53.580625 3.05347656 52.65625 3.04882812 C50.43743352 3.03702591 48.21874982 3.02056155 46 3 C46 3.66 46 4.32 46 5 C45.28326614 4.83923477 44.56653229 4.67846954 43.82807922 4.51283264 C41.07838068 4.01421324 38.54164464 3.84315512 35.75073242 3.79467773 C34.73005173 3.77473251 33.70937103 3.75478729 32.65776062 3.73423767 C31.5680043 3.71752518 30.47824799 3.70081268 29.35546875 3.68359375 C28.2305452 3.66281265 27.10562164 3.64203156 25.9466095 3.62062073 C22.3603006 3.55534208 18.77391973 3.49634101 15.1875 3.4375 C12.75324783 3.39429417 10.31900288 3.35067922 7.88476562 3.30664062 C1.92325272 3.1996829 -4.03833146 3.0978765 -10 3 C-10 2.67 -10 2.34 -10 2 C-6.7 1.67 -3.4 1.34 0 1 C0 0.67 0 0.34 0 0 Z " fill="#DCB501" transform="translate(36,115)"/>
<path d="M0 0 C17.49 0 34.98 0 53 0 C53 0.99 53 1.98 53 3 C35.51 3 18.02 3 0 3 C0 2.01 0 1.02 0 0 Z " fill="#000000" transform="translate(46,41)"/>
<path d="M0 0 C5.94 0.66 11.88 1.32 18 2 C18 2.66 18 3.32 18 4 C14.60883172 5.13038943 12.11455235 5.08909812 8.54077148 5.03759766 C7.89005676 5.02959641 7.23934204 5.02159515 6.56890869 5.01335144 C4.41952873 4.98548673 2.2703527 4.95000469 0.12109375 4.9140625 C-1.37197926 4.89229202 -2.86505699 4.87084253 -4.35813904 4.84970093 C-7.48613601 4.80421791 -10.61404596 4.75499509 -13.74194336 4.703125 C-17.75589037 4.6368402 -21.7699057 4.57958993 -25.78402805 4.52509499 C-28.86636621 4.48230153 -31.9486193 4.43486498 -35.03086662 4.38599777 C-36.51125924 4.36306623 -37.99167465 4.34156088 -39.47210884 4.32149124 C-41.53823594 4.29275999 -43.6041659 4.25782091 -45.67016602 4.22119141 C-46.84692398 4.20263092 -48.02368195 4.18407043 -49.23609924 4.16494751 C-52 4 -52 4 -54 3 C-53.67 2.34 -53.34 1.68 -53 1 C-35.51 1.33 -18.02 1.66 0 2 C0 1.34 0 0.68 0 0 Z " fill="#4E94CE" transform="translate(77,119)"/>
<path d="M0 0 C5.27002208 4.39168507 10.35302051 8.9426379 15 14 C15 14.33 15 14.66 15 15 C12.87527424 15.05386629 10.75016348 15.09273071 8.625 15.125 C6.84996094 15.15980469 6.84996094 15.15980469 5.0390625 15.1953125 C2 15 2 15 0 13 C-0.1953125 9.9609375 -0.1953125 9.9609375 -0.125 6.375 C-0.10695313 5.18648437 -0.08890625 3.99796875 -0.0703125 2.7734375 C-0.04710938 1.85820312 -0.02390625 0.94296875 0 0 Z " fill="#B2AAB3" transform="translate(94,7)"/>
<path d="M0 0 C5.94 0.66 11.88 1.32 18 2 C18 2.66 18 3.32 18 4 C14.17189179 5.27603607 10.76524893 4.86283987 6.8125 4.5625 C6.06291016 4.51029297 5.31332031 4.45808594 4.54101562 4.40429688 C2.69362918 4.27486216 0.84675629 4.13813482 -1 4 C-0.67 2.68 -0.34 1.36 0 0 Z " fill="#539CD8" transform="translate(77,119)"/>
<path d="M0 0 C7.92 0.33 15.84 0.66 24 1 C24 1.33 24 1.66 24 2 C17.73 2 11.46 2 5 2 C5 2.66 5 3.32 5 4 C3.35 3.67 1.7 3.34 0 3 C0 2.01 0 1.02 0 0 Z " fill="#CEB00D" transform="translate(77,116)"/>
</svg>
