<?xml version="1.0" encoding="UTF-8"?>
<svg version="1.1" xmlns="http://www.w3.org/2000/svg" width="128" height="128">
<path d="M0 0 C2.30893522 1.13574651 4.51736965 2.29080715 6.35546875 4.12890625 C7.96912722 4.22580463 9.58658277 4.26091964 11.203125 4.26953125 C12.20150391 4.28886719 13.19988281 4.30820313 14.22851562 4.328125 C16.32728712 4.36154084 18.42635479 4.38017386 20.52539062 4.3828125 C27.29518423 4.54740121 32.28251991 5.40658187 37.35546875 10.12890625 C41.01752237 15.23725731 40.65274528 20.41034834 40.00390625 26.41210938 C39.96426976 29.11977696 40.23484314 30.62925734 41.35546875 33.12890625 C42.88824556 34.30612059 44.42869078 35.47646986 46.02616405 36.56427383 C50.38965928 39.61302465 54.35098752 42.56028048 55.55328369 47.95756531 C56.11375734 52.42456278 55.98102031 56.87361037 55.8359375 61.36328125 C55.82689723 63.01228934 55.82278056 64.66133099 55.82331848 66.31036377 C55.81096543 69.74801152 55.75561386 73.18119579 55.66577148 76.61767578 C55.55216549 81.00870549 55.52248687 85.39521479 55.5218153 89.78756332 C55.51628459 93.18529497 55.47898724 96.5820645 55.430933 99.97943878 C55.40943332 101.59798856 55.39474828 103.21664457 55.38719749 104.83531952 C55.27579809 118.97283295 55.27579809 118.97283295 51.4152832 123.61035156 C47.79771463 126.58799756 46.43403472 127.25139472 41.91011047 127.28953552 C40.50758278 127.30460396 40.50758278 127.30460396 39.07672119 127.31997681 C38.04762634 127.3258078 37.01853149 127.33163879 35.95825195 127.33764648 C34.87680405 127.34743027 33.79535614 127.35721405 32.68113708 127.36729431 C29.08952067 127.39729516 25.49794164 127.41864767 21.90625 127.4375 C20.68117422 127.44407183 19.45609844 127.45064365 18.19389915 127.45741463 C12.37773772 127.48666418 6.56159198 127.5105801 0.74538261 127.52784675 C-5.29491266 127.54616406 -11.33469562 127.57947658 -17.37475586 127.63647461 C-23.85453852 127.69662223 -30.33383428 127.7274045 -36.81388283 127.73710823 C-39.28384879 127.74567403 -41.75380137 127.76451949 -44.22360802 127.79385185 C-47.68309698 127.83272309 -51.14068663 127.83380551 -54.6003418 127.82592773 C-56.12880234 127.85592865 -56.12880234 127.85592865 -57.68814087 127.88653564 C-63.74374793 127.82469096 -67.03266728 126.89375889 -71.40389729 122.61221409 C-74.17058116 119.30435376 -73.82609149 116.38031856 -73.91674805 112.15991211 C-73.932957 111.4425589 -73.94916595 110.72520569 -73.96586609 109.9861145 C-74.10629549 103.35644065 -74.18425013 96.72543455 -74.24478436 90.09459591 C-74.28570875 85.64245436 -74.34594599 81.19252017 -74.45385742 76.74145508 C-74.55793949 72.43356775 -74.61224005 68.127646 -74.6322422 63.81857491 C-74.64812024 62.18179994 -74.68122852 60.54509246 -74.73239708 58.90904045 C-75.11255743 46.13751603 -75.11255743 46.13751603 -71.45498657 41.13308716 C-68.95628136 38.84933288 -66.49509939 36.94641052 -63.64453125 35.12890625 C-62.65453125 34.46890625 -61.66453125 33.80890625 -60.64453125 33.12890625 C-60.2894349 29.6190592 -60.20813299 26.21171004 -60.20507812 22.68945312 C-60.06176357 17.05076655 -58.87153651 13.78752839 -55.64453125 9.12890625 C-49.51884342 4.04588869 -43.33497372 4.71258154 -35.64453125 5.12890625 C-35.64453125 5.78890625 -35.64453125 6.44890625 -35.64453125 7.12890625 C-35.12890625 6.84015625 -34.61328125 6.55140625 -34.08203125 6.25390625 C-31.64453125 5.12890625 -31.64453125 5.12890625 -28.39453125 4.25390625 C-25.35973605 3.34346769 -23.67944611 2.58349044 -21.08203125 1.00390625 C-14.79388191 -2.25661563 -6.64863147 -2.19002189 0 0 Z " fill="#FBC76E" transform="translate(73.64453125,0.87109375)"/>
<path d="M0 0 C1.32 0 2.64 0 4 0 C4 0.66 4 1.32 4 2 C4.72583282 1.99111755 5.45166565 1.98223511 6.19949341 1.9730835 C13.05525625 1.89278154 19.91094837 1.83195649 26.76706123 1.79275131 C30.29152694 1.77191731 33.81560253 1.74367798 37.33984375 1.69824219 C41.39587043 1.64628044 45.45149029 1.62702033 49.5078125 1.609375 C50.76739777 1.58872986 52.02698303 1.56808472 53.32473755 1.54681396 C64.3064422 1.54400408 64.3064422 1.54400408 69 6 C69.90818481 6.84075073 69.90818481 6.84075073 70.8347168 7.69848633 C72.65787846 11.29935476 72.56785765 14.83736167 72.64453125 18.82421875 C72.66400314 19.68505569 72.68347504 20.54589264 72.70353699 21.43281555 C72.73622062 23.25414794 72.76004115 25.07565792 72.77563477 26.8972168 C72.81218066 29.66332955 72.91804286 32.4214035 73.02539062 35.18554688 C73.29306856 48.08002982 73.29306856 48.08002982 69.88549805 53.13964844 C67.3656387 55.42257798 64.88317216 57.2089953 62 59 C60.38252573 60.27496292 58.77636223 61.5645534 57.1875 62.875 C56.36765625 63.51695313 55.5478125 64.15890625 54.703125 64.8203125 C52.6874735 66.44564998 50.73612518 68.0925671 48.796875 69.8046875 C35.02855172 81.9281315 35.02855172 81.9281315 25.4375 82.5 C17.32088167 81.96990466 11.48963447 77.09636607 5.6875 71.8125 C4.37999319 70.64981818 3.07139148 69.48836653 1.76171875 68.328125 C1.12540527 67.76158203 0.4890918 67.19503906 -0.16650391 66.61132812 C-3.50939539 63.67350073 -6.97291886 60.89041957 -10.4375 58.09765625 C-11.283125 57.40542969 -12.12875 56.71320313 -13 56 C-13.57751511 55.60473114 -14.15503021 55.20946228 -14.75004578 54.80221558 C-17.44349167 52.81909713 -19.60471891 51.22322282 -20.65689087 47.96720886 C-20.90773516 45.58888633 -20.94487103 43.30117132 -20.89453125 40.91015625 C-20.89885666 40.04740585 -20.90318207 39.18465546 -20.90763855 38.29576111 C-20.90801869 36.47777814 -20.89102528 34.65971794 -20.85766602 32.84204102 C-20.8126675 30.07280786 -20.83690236 27.31030745 -20.86914062 24.54101562 C-20.86091838 22.76820508 -20.84868112 20.99540768 -20.83203125 19.22265625 C-20.84554375 17.99265648 -20.84554375 17.99265648 -20.85932922 16.73780823 C-20.7039106 11.25595258 -19.32679213 8.34452689 -15.61474609 4.31306458 C-12.98350045 2.17341212 -10.50470871 1.90554108 -7.1875 1.625 C-3.274715 1.59219413 -3.274715 1.59219413 0 0 Z " fill="#DAEAEC" transform="translate(38,8)"/>
<path d="M0 0 C3.1875 2.0625 3.1875 2.0625 4.1875 3.0625 C5.80115847 3.15939838 7.41861402 3.19451339 9.03515625 3.203125 C10.03353516 3.22246094 11.03191406 3.24179688 12.06054688 3.26171875 C14.15931837 3.29513459 16.25838604 3.31376761 18.35742188 3.31640625 C25.12721548 3.48099496 30.11455116 4.34017562 35.1875 9.0625 C38.84955362 14.17085106 38.48477653 19.34394209 37.8359375 25.34570312 C37.79630101 28.05337071 38.06687439 29.56285109 39.1875 32.0625 C40.72027681 33.23971434 42.26072203 34.41006361 43.8581953 35.49786758 C48.22169053 38.5466184 52.18301877 41.49387423 53.38531494 46.89115906 C53.94578859 51.35815653 53.81305156 55.80720412 53.66796875 60.296875 C53.65892848 61.94588309 53.65481181 63.59492474 53.65534973 65.24395752 C53.64299668 68.68160527 53.58764511 72.11478954 53.49780273 75.55126953 C53.38419674 79.94229924 53.35451812 84.32880854 53.35384655 88.72115707 C53.34831584 92.11888872 53.31101849 95.51565825 53.26296425 98.91303253 C53.24146457 100.53158231 53.22677953 102.15023832 53.21922874 103.76891327 C53.10782934 117.9064267 53.10782934 117.9064267 49.24731445 122.54394531 C44.81234612 126.19439878 42.11043101 126.19153423 36.5625 126.125 C35.85609375 126.12048828 35.1496875 126.11597656 34.421875 126.11132812 C32.67704725 126.09953875 30.932263 126.08160324 29.1875 126.0625 C29.1875 123.0625 29.1875 123.0625 30.1875 122.0625 C33.16117388 121.89830942 36.13211247 121.80770659 39.109375 121.734375 C43.19819964 120.84189043 44.55675849 119.27936606 47.1875 116.0625 C47.94191263 112.90973409 47.94191263 112.90973409 47.84692383 109.4362793 C47.85740753 108.79181351 47.86789124 108.14734772 47.87869263 107.48335266 C47.9073414 105.3673121 47.9011644 103.25291768 47.89453125 101.13671875 C47.90765272 99.66410787 47.92295834 98.19151497 47.94035339 96.71894836 C47.98016502 92.85389695 47.99039124 88.98931674 47.99438477 85.12408447 C48.00372362 81.17567689 48.04114175 77.22754532 48.07617188 73.27929688 C48.14070837 65.54036218 48.17398052 57.80170985 48.1875 50.0625 C46.59198494 51.33554077 44.996943 52.60917451 43.40209961 53.88305664 C42.51380966 54.59224747 41.62551971 55.30143829 40.71031189 56.03211975 C37.67810476 58.47246558 34.70928893 60.97171284 31.75 63.5 C23.53683018 70.48355202 15.19526182 77.2990471 6.75 84 C6.15840088 84.47308594 5.56680176 84.94617188 4.95727539 85.43359375 C-2.45519168 91.28112403 -8.57114227 92.15065208 -17.82958984 91.38671875 C-25.9925816 90.05201633 -32.49252627 82.78265661 -38.29296875 77.375 C-41.69985138 74.24806276 -45.28397832 71.36747498 -48.87890625 68.4609375 C-52.68161749 65.35192991 -56.41632339 62.16560698 -60.1340332 58.95556641 C-62.84358569 56.63874633 -65.59809437 54.46199793 -68.50878906 52.40136719 C-69.13013733 51.96056824 -69.7514856 51.51976929 -70.3916626 51.06561279 C-70.86053894 50.73458557 -71.32941528 50.40355835 -71.8125 50.0625 C-71.79761774 58.58183416 -71.75599266 67.10044228 -71.68040943 75.6194334 C-71.64614733 79.57538593 -71.62103078 83.53095263 -71.61694336 87.48706055 C-71.61265855 91.30645479 -71.58418255 95.12497879 -71.53906822 98.94410133 C-71.52609874 100.39965556 -71.52178366 101.85531396 -71.52634621 103.31091881 C-71.53125696 105.35365619 -71.50514852 107.39385454 -71.47192383 109.4362793 C-71.46526199 110.59765915 -71.45860016 111.759039 -71.45173645 112.95561218 C-70.58442468 117.17101696 -69.3193962 118.58479387 -65.8125 121.0625 C-62.86062619 121.76495218 -60.00713643 121.75359466 -56.9831543 121.72192383 C-56.10460281 121.73240753 -55.22605133 121.74289124 -54.32087708 121.75369263 C-51.42579753 121.78242387 -48.53191522 121.77615339 -45.63671875 121.76953125 C-43.62602745 121.78264745 -41.61534933 121.79795143 -39.60469055 121.81535339 C-34.31925515 121.85522528 -29.03416426 121.86539528 -23.74859619 121.86938477 C-18.35247329 121.87871202 -12.95655317 121.91612306 -7.56054688 121.95117188 C3.02212593 122.01577011 13.60464729 122.0489919 24.1875 122.0625 C24.5175 123.3825 24.8475 124.7025 25.1875 126.0625 C13.18285088 126.20163587 1.17839417 126.30819045 -10.82689762 126.37337303 C-16.40173422 126.40466064 -21.97601842 126.4470875 -27.55053711 126.51513672 C-32.93222404 126.58041947 -38.31338027 126.61622538 -43.69543266 126.63176346 C-45.746763 126.64283369 -47.7980649 126.66445185 -49.84916878 126.69688034 C-52.72698411 126.74056204 -55.60261837 126.74642919 -58.48071289 126.74365234 C-59.32516464 126.765224 -60.16961639 126.78679565 -61.03965759 126.809021 C-66.62452936 126.75086966 -69.46502312 125.40045367 -73.51166439 121.54636574 C-76.37293051 118.28251385 -75.99379371 115.32632046 -76.0847168 111.09350586 C-76.10092575 110.37615265 -76.1171347 109.65879944 -76.13383484 108.91970825 C-76.27426424 102.2900344 -76.35221888 95.6590283 -76.41275311 89.02818966 C-76.4536775 84.57604811 -76.51391474 80.12611392 -76.62182617 75.67504883 C-76.72590824 71.3671615 -76.7802088 67.06123975 -76.80021095 62.75216866 C-76.81608899 61.11539369 -76.84919727 59.47868621 -76.90036583 57.8426342 C-77.28052618 45.07110978 -77.28052618 45.07110978 -73.62295532 40.06668091 C-71.12425011 37.78292663 -68.66306814 35.88000427 -65.8125 34.0625 C-64.8225 33.4025 -63.8325 32.7425 -62.8125 32.0625 C-62.45740365 28.55265295 -62.37610174 25.14530379 -62.37304688 21.62304688 C-62.22973232 15.9843603 -61.03950526 12.72112214 -57.8125 8.0625 C-51.68681217 2.97948244 -45.50294247 3.64617529 -37.8125 4.0625 C-38.1425 5.3825 -38.4725 6.7025 -38.8125 8.0625 C-40.13314453 8.17464844 -40.13314453 8.17464844 -41.48046875 8.2890625 C-42.64191406 8.42054687 -43.80335937 8.55203125 -45 8.6875 C-46.14855469 8.80351562 -47.29710938 8.91953125 -48.48046875 9.0390625 C-52.63478146 10.31506476 -54.69120652 12.37385016 -56.8125 16.0625 C-57.60760845 19.01805189 -57.74740096 21.89013327 -57.828125 24.94140625 C-57.87087555 26.21418678 -57.87087555 26.21418678 -57.91448975 27.51268005 C-57.96156097 29.3050966 -57.99433935 31.09793885 -58.01367188 32.89086914 C-58.06205206 35.59991744 -58.21688248 38.28958993 -58.375 40.99414062 C-58.59448519 48.2427101 -58.73673395 54.50139519 -53.58691406 60.06860352 C-50.48209193 62.93978868 -47.16340797 65.41825898 -43.66290283 67.78419495 C-40.97092898 69.64387854 -38.54307524 71.74306282 -36.0625 73.875 C-24.56694463 83.96173964 -24.56694463 83.96173964 -10.31640625 87.37890625 C0.17973839 86.05256036 7.92027235 77.3514158 15.42919922 70.61474609 C18.50258185 67.90153216 21.71666504 65.37295879 24.94140625 62.84375 C26.05322266 61.96203125 26.05322266 61.96203125 27.1875 61.0625 C28.20884033 60.38767578 29.23018066 59.71285156 30.2824707 59.01757812 C32.17423615 57.42632868 33.06379594 56.49899615 33.74250793 54.10412598 C33.94813519 51.71648698 33.96701348 49.39596654 33.9140625 47 C33.91505951 46.13109131 33.91605652 45.26218262 33.91708374 44.36694336 C33.91241437 42.53457465 33.89302737 40.70219171 33.85986328 38.87011719 C33.81264499 36.07109466 33.81874801 33.27588255 33.83203125 30.4765625 C33.82087701 28.69268571 33.80665679 26.9088249 33.7890625 25.125 C33.79088531 24.29154053 33.79270813 23.45808105 33.79458618 22.59936523 C33.69925956 18.67752817 33.47641303 16.53789254 31.39990234 13.12109375 C27.5054822 9.49741789 24.60475681 8.81143919 19.31738281 8.74365234 C18.13646057 8.72378265 16.95553833 8.70391296 15.73883057 8.68344116 C13.83396881 8.66611435 13.83396881 8.66611435 11.890625 8.6484375 C10.58671814 8.62907135 9.28281128 8.6097052 7.93939209 8.5897522 C4.48056064 8.53848917 1.02169034 8.49883256 -2.43731689 8.46160889 C-5.97002732 8.42153247 -9.50257693 8.37045678 -13.03515625 8.3203125 C-19.96081991 8.22362245 -26.88658685 8.13919565 -33.8125 8.0625 C-34.3075 6.5775 -34.3075 6.5775 -34.8125 5.0625 C-33.6575 4.65 -32.5025 4.2375 -31.3125 3.8125 C-28.37300677 2.74219672 -25.8533332 1.49642669 -23.1875 -0.125 C-16.26935672 -3.66610496 -6.91623577 -3.4020403 0 0 Z " fill="#0B0804" transform="translate(75.8125,1.9375)"/>
<path d="M0 0 C1.18998121 0.8716226 2.37681214 1.74754599 3.5625 2.625 C4.22378906 3.11226562 4.88507812 3.59953125 5.56640625 4.1015625 C8 6 8 6 9.27644348 7.47138977 C12.98928505 11.43166599 15.96709211 12.44861791 21.37158203 12.76391602 C23.91680084 12.79530407 26.46265281 12.78976925 29.0078125 12.75390625 C30.37913615 12.74818495 31.75046476 12.74356131 33.12179565 12.73997498 C35.99202613 12.72446928 38.86073661 12.68467193 41.73046875 12.62963867 C44.65071306 12.57641498 47.56668348 12.56242492 50.48730469 12.58666992 C69.8128447 13.51847321 69.8128447 13.51847321 86.4296875 5.40234375 C88.07634949 3.66216181 89.53040574 1.89778256 91 0 C91.33 0 91.66 0 92 0 C92.3645967 3.63554993 92.50800374 5.37094005 90.1640625 8.2734375 C89.32617188 8.96695313 88.48828125 9.66046875 87.625 10.375 C86.24634766 11.53515625 86.24634766 11.53515625 84.83984375 12.71875 C83.43412109 13.84796875 83.43412109 13.84796875 82 15 C81.19691406 15.6496875 80.39382812 16.299375 79.56640625 16.96875 C77.95267919 18.26185148 76.33128547 19.54543213 74.703125 20.8203125 C72.6874735 22.44564998 70.73612518 24.0925671 68.796875 25.8046875 C55.02855172 37.9281315 55.02855172 37.9281315 45.4375 38.5 C37.32088167 37.96990466 31.48963447 33.09636607 25.6875 27.8125 C24.37999319 26.64981818 23.07139148 25.48836653 21.76171875 24.328125 C21.12540527 23.76158203 20.4890918 23.19503906 19.83349609 22.61132812 C17.27331943 20.3613726 14.64724066 18.20950346 12 16.0625 C11.13761719 15.35609375 10.27523438 14.6496875 9.38671875 13.921875 C7.86766935 12.69867974 6.33010892 11.49787499 4.76953125 10.328125 C0.09140798 6.7051473 0.09140798 6.7051473 -0.4375 2.625 C-0.293125 1.75875 -0.14875 0.8925 0 0 Z " fill="#B3CBCE" transform="translate(18,52)"/>
<path d="M0 0 C0.61165512 0.30685226 1.22331024 0.61370453 1.85350037 0.92985535 C3.34422136 1.67305934 4.84161497 2.40296886 6.34399414 3.12231445 C9.21157276 4.8443921 10.99996653 6.29668072 13 9 C14.0942053 14.76014889 13.76183329 20.35852668 13.4375 26.1875 C13.31383052 29.26381858 13.21490582 32.34061043 13.12109375 35.41796875 C13.09445648 36.15634979 13.06781921 36.89473083 13.04037476 37.65548706 C12.86689581 43.93412748 13.61061454 49.8679791 15 56 C18.86899778 53.19308004 22.633325 50.35418325 26.21484375 47.1875 C26.77727783 46.69419189 27.33971191 46.20088379 27.91918945 45.69262695 C29.03990444 44.70376079 30.15207904 43.70511411 31.25463867 42.69604492 C34.76216128 39.61429405 37.33057986 38.31550136 42 38 C40.69853887 40.92985745 39.40795226 42.78618733 36.953125 44.83984375 C36.355 45.34580078 35.756875 45.85175781 35.140625 46.37304688 C34.51671875 46.88931641 33.8928125 47.40558594 33.25 47.9375 C32.6415625 48.44990234 32.033125 48.96230469 31.40625 49.49023438 C29.60995332 51.00058212 27.8060889 52.50138333 26 54 C24.8487963 54.95944103 23.69774208 55.91906147 22.546875 56.87890625 C21.70640625 57.57886719 20.8659375 58.27882812 20 59 C20.37904362 61.34907295 20.67780588 62.680521 22.390625 64.37890625 C28.52613843 68.28449568 34.90431708 69.66955945 42 71 C42 71.33 42 71.66 42 72 C36.96469037 72.1238722 31.93027303 72.21446514 26.89379883 72.2746582 C25.18172755 72.29975714 23.46976296 72.33384429 21.75805664 72.37719727 C19.29286355 72.43805739 16.82909015 72.46625432 14.36328125 72.48828125 C13.22080681 72.52699089 13.22080681 72.52699089 12.05525208 72.56648254 C7.94587664 72.56863689 6.24210799 72.20185317 3.03979492 69.53198242 C2.3666626 68.69642822 1.69353027 67.86087402 1 67 C0.67 66.67 0.34 66.34 0 66 C-0.09413687 63.94443339 -0.11742998 61.88559819 -0.11352539 59.82788086 C-0.11367142 59.18399918 -0.11381744 58.54011749 -0.1139679 57.87672424 C-0.11326885 55.73939697 -0.10547691 53.60215587 -0.09765625 51.46484375 C-0.09579204 49.98653715 -0.09436815 48.50822993 -0.09336853 47.02992249 C-0.08954359 43.13201198 -0.07971352 39.23413851 -0.06866455 35.33624268 C-0.05844992 31.36153667 -0.0538708 27.38682471 -0.04882812 23.41210938 C-0.03809122 15.608056 -0.02101509 7.80403318 0 0 Z " fill="#F89F28" transform="translate(4,52)"/>
<path d="M0 0 C17.16 0 34.32 0 52 0 C48.66932557 3.33067443 45.57774165 6.27868248 41.9375 9.1875 C41.10089844 9.86167969 40.26429687 10.53585938 39.40234375 11.23046875 C32.98410662 15.95804829 26.83217172 15.9503827 19 15 C11.65996445 12.2386035 5.45513435 6.52101762 0 1 C0 0.67 0 0.34 0 0 Z " fill="#E3F4F6" transform="translate(38,68)"/>
<path d="M0 0 C19.14 0 38.28 0 58 0 C58.495 1.485 58.495 1.485 59 3 C39.2 3 19.4 3 -1 3 C-0.67 2.01 -0.34 1.02 0 0 Z " fill="#020202" transform="translate(35,64)"/>
<path d="M0 0 C19.14 0 38.28 0 58 0 C58.495 1.485 58.495 1.485 59 3 C39.2 3 19.4 3 -1 3 C-0.67 2.01 -0.34 1.02 0 0 Z " fill="#020202" transform="translate(35,53)"/>
<path d="M0 0 C19.14 0 38.28 0 58 0 C58 0.99 58 1.98 58 3 C38.86 3 19.72 3 0 3 C0 2.01 0 1.02 0 0 Z " fill="#000000" transform="translate(35,31)"/>
<path d="M0 0 C4.90677664 0.45315109 7.18260347 1.57246112 10.6875 5 C14.25489222 8.37935197 17.86657678 11.59612119 21.6875 14.6875 C22.595 15.42613281 23.5025 16.16476563 24.4375 16.92578125 C26.03706419 18.22055043 27.64058437 19.51046567 29.25 20.79296875 C30.88829596 22.13069025 32.45376843 23.55685054 34 25 C34 25.99 34 26.98 34 28 C30.13557516 27.41096527 28.01199889 25.61765921 25.0625 23.125 C24.10085937 22.31804687 23.13921875 21.51109375 22.1484375 20.6796875 C21.0987567 19.78669529 20.04928516 18.89345706 19 18 C17.86762248 17.04375549 16.73480166 16.08803572 15.6015625 15.1328125 C13.41184971 13.285349 11.22576189 11.43375718 9.04296875 9.578125 C7.4696634 8.2451577 5.89319541 6.91499289 4.27978516 5.63085938 C2.81925438 4.46175006 1.40519948 3.23506322 0 2 C0 1.34 0 0.68 0 0 Z " fill="#110E07" transform="translate(82,90)"/>
<path d="M0 0 C-1.5834829 4.35716535 -4.9792652 6.82306181 -8.4375 9.6875 C-9.06060059 10.21206787 -9.68370117 10.73663574 -10.32568359 11.27709961 C-12.21053001 12.85951407 -14.10368193 14.43136007 -16 16 C-16.55091309 16.45729492 -17.10182617 16.91458984 -17.66943359 17.38574219 C-20.76047181 19.94791024 -23.8623021 22.49515982 -27 25 C-28.04800781 25.86431641 -28.04800781 25.86431641 -29.1171875 26.74609375 C-31 28 -31 28 -34 28 C-33.43068574 24.69380292 -32.56075535 23.23451977 -30.0078125 21.08203125 C-29.3900293 20.55391846 -28.77224609 20.02580566 -28.13574219 19.48168945 C-27.47219727 18.93085693 -26.80865234 18.38002441 -26.125 17.8125 C-25.11421387 16.95628052 -25.11421387 16.95628052 -24.08300781 16.08276367 C-22.06392128 14.37793278 -20.03395935 12.68704336 -18 11 C-17.14003418 10.28263672 -17.14003418 10.28263672 -16.26269531 9.55078125 C-4.8003574 0 -4.8003574 0 0 0 Z " fill="#110D06" transform="translate(46,90)"/>
<path d="M0 0 C12.54 0 25.08 0 38 0 C38 0.99 38 1.98 38 3 C25.13 3 12.26 3 -1 3 C-0.67 2.01 -0.34 1.02 0 0 Z " fill="#020202" transform="translate(35,42)"/>
<path d="M0 0 C6.61764706 3.97058824 6.61764706 3.97058824 9 6 C9 6.66 9 7.32 9 8 C6.12557036 10.20144809 3.05381433 12.04895196 0 14 C0 9.38 0 4.76 0 0 Z " fill="#EE9826" transform="translate(114,40)"/>
<path d="M0 0 C0 4.62 0 9.24 0 14 C-3.72114571 11.68462045 -6.61229661 9.71420527 -9 6 C-7.8803014 4.99406757 -6.7540588 3.9954151 -5.625 3 C-4.68527344 2.1646875 -4.68527344 2.1646875 -3.7265625 1.3125 C-2 0 -2 0 0 0 Z " fill="#EF9826" transform="translate(14,40)"/>
<path d="M0 0 C5.61 0 11.22 0 17 0 C17.33 0.99 17.66 1.98 18 3 C12.06 3 6.12 3 0 3 C0 2.01 0 1.02 0 0 Z " fill="#080909" transform="translate(76,42)"/>
</svg>
