<?xml version="1.0" encoding="UTF-8"?>
<svg version="1.1" xmlns="http://www.w3.org/2000/svg" width="128" height="128">
<path d="M0 0 C0.81146484 -0.01998047 1.62292969 -0.03996094 2.45898438 -0.06054688 C3.24466797 -0.05990234 4.03035156 -0.05925781 4.83984375 -0.05859375 C5.55390381 -0.06044678 6.26796387 -0.0622998 7.00366211 -0.06420898 C10.098972 0.69007322 11.13296133 1.89980224 13.0625 4.4375 C13.45704138 7.41471819 13.60977452 10.02159231 13.58007812 12.99804688 C13.5870874 13.86027359 13.59409668 14.72250031 13.60131836 15.6108551 C13.61891689 18.45964813 13.60726912 21.30744696 13.59375 24.15625 C13.59644438 26.13635448 13.60032635 28.11645767 13.60534668 30.09655762 C13.61124424 34.24597778 13.60267038 38.39505347 13.58398438 42.54443359 C13.56119477 47.86448333 13.57431646 53.18372592 13.59827423 58.50374603 C13.61272517 62.59240811 13.60812943 66.68087868 13.59776306 70.76954651 C13.59509383 72.73116654 13.59837242 74.69280393 13.60768127 76.65440369 C13.61783523 79.3957223 13.60236226 82.13573206 13.58007812 84.87695312 C13.58817505 85.68850357 13.59627197 86.50005402 13.60461426 87.3361969 C13.55009544 90.95446998 13.38152215 93.01831189 11.15783691 95.94018555 C8.82985335 97.60374782 7.70480925 97.95070932 4.875 97.96875 C3.70324219 97.97648437 3.70324219 97.97648437 2.5078125 97.984375 C1.29738281 97.96117187 1.29738281 97.96117187 0.0625 97.9375 C-0.74445313 97.95296875 -1.55140625 97.9684375 -2.3828125 97.984375 C-6.22441927 97.95901786 -8.28348169 97.9198385 -11.4375 95.59375 C-14.31319837 91.45993359 -14.08569282 87.48436173 -14.08276367 82.64892578 C-14.08612228 81.85672638 -14.0894809 81.06452698 -14.09294128 80.24832153 C-14.10244902 77.62646929 -14.10439434 75.00468092 -14.10546875 72.3828125 C-14.10868158 70.56061781 -14.11204567 68.73842339 -14.11555481 66.91622925 C-14.12154572 63.09470013 -14.12339476 59.27319364 -14.12280273 55.45166016 C-14.12270114 50.55675943 -14.13635046 45.66200386 -14.15357494 40.76713753 C-14.16469833 37.00274999 -14.16672183 33.2383975 -14.16619301 29.47399521 C-14.16737272 27.66949844 -14.17179403 25.86500076 -14.17952538 24.06052017 C-14.18933155 21.53519809 -14.18644471 19.01019051 -14.18041992 16.48486328 C-14.18603943 15.74079224 -14.19165894 14.99672119 -14.19744873 14.23010254 C-14.1677234 9.32253179 -13.58651235 5.58747812 -10.56811523 1.65209961 C-7.46580074 -0.65872755 -3.72704791 -0.03240911 0 0 Z " fill="#6FE3A0" transform="translate(114.9375,30.5625)"/>
<path d="M0 0 C1.04800781 -0.02320313 1.04800781 -0.02320313 2.1171875 -0.046875 C5.69775804 -0.01985183 7.86100152 0.41571369 10.9375 2.28125 C14.4558607 6.06615317 14.13070665 9.80038614 14.16113281 14.82568359 C14.17074036 16.1073642 14.1803479 17.3890448 14.19024658 18.70956421 C14.19509464 20.10585349 14.19937345 21.50214484 14.203125 22.8984375 C14.20888111 24.33566285 14.21463878 25.77288819 14.22039795 27.21011353 C14.23089015 30.22113399 14.23674459 33.2321279 14.24023438 36.24316406 C14.24571825 40.09213683 14.26975118 43.9407557 14.29820633 47.78961754 C14.3168737 50.75797538 14.32204046 53.72624861 14.32357025 56.69466019 C14.3265876 58.11317506 14.33458505 59.53168878 14.34775543 60.95014572 C14.36490137 62.93853445 14.36107856 64.92707009 14.35644531 66.91552734 C14.36009094 68.04485687 14.36373657 69.1741864 14.36749268 70.33773804 C13.94540035 73.9698281 12.88444382 76.38304998 11 79.5 C7.61841559 81.1907922 3.84052188 80.76889059 0.125 80.8125 C-1.09896484 80.85600586 -1.09896484 80.85600586 -2.34765625 80.90039062 C-3.13785156 80.90876953 -3.92804687 80.91714844 -4.7421875 80.92578125 C-5.4626123 80.94036377 -6.18303711 80.95494629 -6.92529297 80.9699707 C-9.9875615 80.27629373 -11.06364383 78.94947294 -13 76.5 C-13.5146637 73.3125 -13.5146637 73.3125 -13.53344727 69.5 C-13.54637062 68.45537598 -13.54637062 68.45537598 -13.55955505 67.38964844 C-13.58221713 65.09271852 -13.57547711 62.79700835 -13.56640625 60.5 C-13.57164152 58.90103798 -13.57791765 57.30207905 -13.58518982 55.703125 C-13.59559418 52.3540187 -13.59103199 49.00533729 -13.57641602 45.65625 C-13.55922116 41.3650641 -13.58273033 37.07521628 -13.61790562 32.78417969 C-13.63986862 29.48298272 -13.63844106 26.18210656 -13.6301403 22.88085938 C-13.62932029 21.29881319 -13.63619332 19.71674356 -13.65091133 18.13476562 C-13.66834043 15.92234071 -13.65383401 13.71232795 -13.63110352 11.5 C-13.63014175 10.241875 -13.62917999 8.98375 -13.62818909 7.6875 C-13 4.5 -13 4.5 -10.69883728 2.09570312 C-7.13933531 -0.00887297 -4.01827446 -0.08896549 0 0 Z " fill="#F88E84" transform="translate(13,47.5)"/>
<path d="M0 0 C1.794375 -0.01160156 1.794375 -0.01160156 3.625 -0.0234375 C7.29988892 0.41040355 9.14553337 1.04045407 12 3.375 C14.44721068 7.46319744 14.03659104 10.92422786 13.5625 15.5625 C12.86885162 20.12292017 12.86885162 20.12292017 14 24.375 C14.12378623 27.35543491 14.1884689 30.31151169 14.203125 33.29296875 C14.20882507 34.18357498 14.21452515 35.07418121 14.22039795 35.99177551 C14.22985582 37.88065399 14.23638505 39.76954903 14.24023438 41.65844727 C14.24990303 44.53366424 14.28090335 47.40815513 14.3125 50.28320312 C14.31903385 52.11978743 14.32428282 53.95637684 14.328125 55.79296875 C14.3404718 56.64739059 14.3528186 57.50181244 14.36553955 58.38212585 C14.3455947 63.790961 13.58923677 67.5924764 11 72.375 C7.61841559 74.0657922 3.84052188 73.64389059 0.125 73.6875 C-1.09896484 73.73100586 -1.09896484 73.73100586 -2.34765625 73.77539062 C-8.36458203 73.83919163 -8.36458203 73.83919163 -11.5078125 71.54296875 C-13.98427321 67.94496955 -14.12919039 65.04262313 -14.14526367 60.78955078 C-14.15164352 59.64471222 -14.15802338 58.49987366 -14.16459656 57.32034302 C-14.16570938 56.08283295 -14.1668222 54.84532288 -14.16796875 53.5703125 C-14.17129715 52.2990451 -14.17462555 51.02777771 -14.17805481 49.71798706 C-14.18312207 47.02631129 -14.18589526 44.33473646 -14.18530273 41.64306641 C-14.1852012 38.20096014 -14.19884614 34.75906057 -14.21607494 31.31700325 C-14.22989637 28.02644745 -14.22928446 24.73589339 -14.23046875 21.4453125 C-14.23765427 20.21185089 -14.24483978 18.97838928 -14.25224304 17.70755005 C-14.24916641 16.55640717 -14.24608978 15.40526428 -14.24291992 14.21923828 C-14.24434494 13.20902618 -14.24576996 12.19881409 -14.24723816 11.1579895 C-13.98249789 8.17799083 -13.33326169 6.04565916 -12 3.375 C-8.13206791 0.21158411 -4.90713908 -0.03172719 0 0 Z " fill="#4ED3EA" transform="translate(81,54.625)"/>
<path d="M0 0 C1.20527344 -0.01675781 2.41054688 -0.03351563 3.65234375 -0.05078125 C7.36684564 0.3449217 9.18686577 0.9512905 12.0625 3.3125 C14.33181557 7.58147022 14.36907975 11.73887569 14.36328125 16.46484375 C14.36756638 17.24259659 14.3718515 18.02034943 14.37626648 18.82167053 C14.3819918 20.46142608 14.38252332 22.10120702 14.37817383 23.7409668 C14.37501447 26.23856268 14.39849204 28.73497226 14.42382812 31.23242188 C14.4261015 32.83072768 14.42680443 34.42903665 14.42578125 36.02734375 C14.434991 36.76814682 14.44420074 37.50894989 14.45368958 38.27220154 C14.41172034 43.01676101 13.59437468 46.29151421 11.0625 50.3125 C7.68091559 52.0032922 3.90302188 51.58139059 0.1875 51.625 C-0.62847656 51.65400391 -1.44445313 51.68300781 -2.28515625 51.71289062 C-8.27997128 51.77645718 -8.27997128 51.77645718 -11.4453125 49.54296875 C-14.37520951 45.16346302 -14.11059903 40.6066624 -14.140625 35.4765625 C-14.14632507 34.71959076 -14.15202515 33.96261902 -14.15789795 33.18270874 C-14.16732514 31.58405953 -14.17387285 29.98539109 -14.17773438 28.38671875 C-14.18743909 25.95277723 -14.21848248 23.51968104 -14.25 21.0859375 C-14.25653102 19.52865082 -14.2617811 17.97135813 -14.265625 16.4140625 C-14.2779718 15.69199615 -14.2903186 14.96992981 -14.30303955 14.22598267 C-14.2824636 9.51332946 -13.40837432 6.32154957 -10.9375 2.3125 C-7.62328449 -0.24882023 -4.07493114 0.01304674 0 0 Z " fill="#FED26A" transform="translate(46.9375,76.6875)"/>
<path d="M0 0 C2.5 1.5625 2.5 1.5625 4 4 C4.45377473 7.63019782 4.43699866 10.02317947 2.9375 13.375 C0.12823271 15.73115966 -2.39958251 15.68961918 -6 16 C-9.98213629 16.51958035 -12.1039294 17.54180335 -15.13671875 20.16015625 C-16.24950195 21.1027832 -16.24950195 21.1027832 -17.38476562 22.06445312 C-18.14466797 22.72380859 -18.90457031 23.38316406 -19.6875 24.0625 C-21.20860931 25.37012028 -22.73317818 26.67373051 -24.26171875 27.97265625 C-25.26658325 28.84289429 -25.26658325 28.84289429 -26.29174805 29.73071289 C-28 31 -28 31 -30 31 C-29.9175 32.051875 -29.835 33.10375 -29.75 34.1875 C-30 38 -30 38 -31.4375 40.9375 C-34 43 -34 43 -37.875 42.625 C-44.52639906 42.17274899 -48.90008226 47.06150929 -53.66796875 51.10546875 C-54.2196875 51.58878662 -54.77140625 52.07210449 -55.33984375 52.57006836 C-56.44934948 53.52571175 -57.58297864 54.45401918 -58.73828125 55.35375977 C-62.39139978 58.15026908 -62.39139978 58.15026908 -63.625 62.5625 C-63.810625 64.2640625 -63.810625 64.2640625 -64 66 C-65.5625 68.4375 -65.5625 68.4375 -68 70 C-72.01603612 70.79990863 -74.96932124 70.61840725 -78.5 68.5 C-80 66 -80 66 -79.47265625 62.4921875 C-79.38802284 58.00763635 -81.30557982 56.07760883 -84.33984375 52.9140625 C-86.18590161 51.13029087 -88.0526916 49.36777599 -89.9375 47.625 C-91.80228196 45.84792762 -93.66563949 44.0693589 -95.52734375 42.2890625 C-96.35999756 41.51256348 -97.19265137 40.73606445 -98.05053711 39.93603516 C-100 38 -100 38 -101 36 C-102.99608427 35.68437447 -102.99608427 35.68437447 -105.3125 35.625 C-108.4511316 35.32513074 -109.84603151 35.09763856 -112.5625 33.375 C-114.61788594 29.97914496 -114.61585582 27.90042018 -114 24 C-111.55401113 20.61878009 -110.10703441 19.23063217 -106 18.375 C-101.86489856 19.23647947 -100.47962594 20.59937014 -98 24 C-97.92265625 25.80404297 -97.92265625 25.80404297 -97.84375 27.64453125 C-97.24227546 33.48303994 -93.31329628 36.72214036 -89.3125 40.6875 C-88.60416016 41.42033203 -87.89582031 42.15316406 -87.16601562 42.90820312 C-80.16367229 50.92766145 -80.16367229 50.92766145 -70.9375 55 C-64.10540382 54.67521444 -59.20331361 48.77394124 -54.47851562 44.36132812 C-48.65566714 39 -48.65566714 39 -46 39 C-46.103125 37.948125 -46.20625 36.89625 -46.3125 35.8125 C-46 32 -46 32 -44 29.0625 C-41 27 -41 27 -37.328125 27.265625 C-31.75490798 27.40903463 -28.7256858 24.24369804 -24.75 20.6875 C-23.36996866 19.50369988 -21.98976577 18.32009973 -20.609375 17.13671875 C-20.01092773 16.60780029 -19.41248047 16.07888184 -18.79589844 15.53393555 C-17 14 -17 14 -14.81958008 12.44091797 C-12.46885521 10.57938863 -12.35608594 9.35797889 -11.9375 6.4375 C-11.58984375 4.05859375 -11.58984375 4.05859375 -11 2 C-7.31082001 -0.45945333 -4.28300443 -0.6807995 0 0 Z " fill="#000101" transform="translate(119,0)"/>
<path d="M0 0 C0.81146484 -0.01998047 1.62292969 -0.03996094 2.45898438 -0.06054688 C3.24466797 -0.05990234 4.03035156 -0.05925781 4.83984375 -0.05859375 C5.55390381 -0.06044678 6.26796387 -0.0622998 7.00366211 -0.06420898 C10.098972 0.69007322 11.13296133 1.89980224 13.0625 4.4375 C13.45704138 7.41471819 13.60977452 10.02159231 13.58007812 12.99804688 C13.5870874 13.86027359 13.59409668 14.72250031 13.60131836 15.6108551 C13.61891689 18.45964813 13.60726912 21.30744696 13.59375 24.15625 C13.59644438 26.13635448 13.60032635 28.11645767 13.60534668 30.09655762 C13.61124424 34.24597778 13.60267038 38.39505347 13.58398438 42.54443359 C13.56119477 47.86448333 13.57431646 53.18372592 13.59827423 58.50374603 C13.61272517 62.59240811 13.60812943 66.68087868 13.59776306 70.76954651 C13.59509383 72.73116654 13.59837242 74.69280393 13.60768127 76.65440369 C13.61783523 79.3957223 13.60236226 82.13573206 13.58007812 84.87695312 C13.58817505 85.68850357 13.59627197 86.50005402 13.60461426 87.3361969 C13.55009544 90.95446998 13.38152215 93.01831189 11.15783691 95.94018555 C8.82985335 97.60374782 7.70480925 97.95070932 4.875 97.96875 C3.70324219 97.97648437 3.70324219 97.97648437 2.5078125 97.984375 C1.29738281 97.96117187 1.29738281 97.96117187 0.0625 97.9375 C-0.74445313 97.95296875 -1.55140625 97.9684375 -2.3828125 97.984375 C-6.22441927 97.95901786 -8.28348169 97.9198385 -11.4375 95.59375 C-14.31319837 91.45993359 -14.08569282 87.48436173 -14.08276367 82.64892578 C-14.08612228 81.85672638 -14.0894809 81.06452698 -14.09294128 80.24832153 C-14.10244902 77.62646929 -14.10439434 75.00468092 -14.10546875 72.3828125 C-14.10868158 70.56061781 -14.11204567 68.73842339 -14.11555481 66.91622925 C-14.12154572 63.09470013 -14.12339476 59.27319364 -14.12280273 55.45166016 C-14.12270114 50.55675943 -14.13635046 45.66200386 -14.15357494 40.76713753 C-14.16469833 37.00274999 -14.16672183 33.2383975 -14.16619301 29.47399521 C-14.16737272 27.66949844 -14.17179403 25.86500076 -14.17952538 24.06052017 C-14.18933155 21.53519809 -14.18644471 19.01019051 -14.18041992 16.48486328 C-14.18603943 15.74079224 -14.19165894 14.99672119 -14.19744873 14.23010254 C-14.1677234 9.32253179 -13.58651235 5.58747812 -10.56811523 1.65209961 C-7.46580074 -0.65872755 -3.72704791 -0.03240911 0 0 Z M-8.9375 6.4375 C-9.13601578 9.13733375 -9.21022785 11.73459415 -9.19628906 14.43554688 C-9.1997937 15.26167984 -9.20329834 16.08781281 -9.20690918 16.9389801 C-9.21573381 19.67815478 -9.2098748 22.41707256 -9.203125 25.15625 C-9.20447144 27.0543218 -9.2064118 28.95239326 -9.20892334 30.85046387 C-9.21187559 34.83182045 -9.20757371 38.81308741 -9.19824219 42.79443359 C-9.1868476 47.90602503 -9.19340653 53.01740645 -9.20538712 58.12899017 C-9.21260298 62.04939363 -9.21031905 65.96974704 -9.20513153 69.89015198 C-9.20379428 71.77527389 -9.20544539 73.6604003 -9.21009064 75.54551697 C-9.2151514 78.17695205 -9.20745208 80.80804372 -9.19628906 83.43945312 C-9.20033752 84.22393326 -9.20438599 85.00841339 -9.20855713 85.81666565 C-9.32934964 90.0892296 -9.32934964 90.0892296 -6.9375 93.4375 C-3.64985985 93.75807871 -3.64985985 93.75807871 0.0625 93.6875 C1.9496875 93.69523437 1.9496875 93.69523437 3.875 93.703125 C7.15532361 93.77530455 7.15532361 93.77530455 9.0625 91.4375 C9.26101578 88.73766625 9.33522785 86.14040585 9.32128906 83.43945312 C9.3247937 82.61332016 9.32829834 81.78718719 9.33190918 80.9360199 C9.34073381 78.19684522 9.3348748 75.45792744 9.328125 72.71875 C9.32947144 70.8206782 9.3314118 68.92260674 9.33392334 67.02453613 C9.33687559 63.04317955 9.33257371 59.06191259 9.32324219 55.08056641 C9.3118476 49.96897497 9.31840653 44.85759355 9.33038712 39.74600983 C9.33760298 35.82560637 9.33531905 31.90525296 9.33013153 27.98484802 C9.32879428 26.09972611 9.33044539 24.2145997 9.33509064 22.32948303 C9.3401514 19.69804795 9.33245208 17.06695628 9.32128906 14.43554688 C9.32533752 13.65106674 9.32938599 12.86658661 9.33355713 12.05833435 C9.45434964 7.7857704 9.45434964 7.7857704 7.0625 4.4375 C3.77485985 4.11692129 3.77485985 4.11692129 0.0625 4.1875 C-1.8246875 4.17976563 -1.8246875 4.17976563 -3.75 4.171875 C-7.03032361 4.09969545 -7.03032361 4.09969545 -8.9375 6.4375 Z " fill="#040B08" transform="translate(114.9375,30.5625)"/>
<path d="M0 0 C1.04800781 -0.02320313 1.04800781 -0.02320313 2.1171875 -0.046875 C5.69775804 -0.01985183 7.86100152 0.41571369 10.9375 2.28125 C14.4558607 6.06615317 14.13070665 9.80038614 14.16113281 14.82568359 C14.17074036 16.1073642 14.1803479 17.3890448 14.19024658 18.70956421 C14.19509464 20.10585349 14.19937345 21.50214484 14.203125 22.8984375 C14.20888111 24.33566285 14.21463878 25.77288819 14.22039795 27.21011353 C14.23089015 30.22113399 14.23674459 33.2321279 14.24023438 36.24316406 C14.24571825 40.09213683 14.26975118 43.9407557 14.29820633 47.78961754 C14.3168737 50.75797538 14.32204046 53.72624861 14.32357025 56.69466019 C14.3265876 58.11317506 14.33458505 59.53168878 14.34775543 60.95014572 C14.36490137 62.93853445 14.36107856 64.92707009 14.35644531 66.91552734 C14.36009094 68.04485687 14.36373657 69.1741864 14.36749268 70.33773804 C13.94540035 73.9698281 12.88444382 76.38304998 11 79.5 C7.61841559 81.1907922 3.84052188 80.76889059 0.125 80.8125 C-1.09896484 80.85600586 -1.09896484 80.85600586 -2.34765625 80.90039062 C-6.06854835 80.93984544 -8.33505952 80.90770816 -11.5546875 78.93359375 C-13.54689852 75.57914114 -13.393388 73.12147606 -13.25 69.25 C-13.21390625 67.98671875 -13.1778125 66.7234375 -13.140625 65.421875 C-13.09421875 64.45765625 -13.0478125 63.4934375 -13 62.5 C-11.68 62.83 -10.36 63.16 -9 63.5 C-8.93941406 64.28246094 -8.87882813 65.06492187 -8.81640625 65.87109375 C-8.73261719 66.88300781 -8.64882812 67.89492187 -8.5625 68.9375 C-8.48128906 69.94683594 -8.40007813 70.95617187 -8.31640625 71.99609375 C-8.26788532 74.43640779 -8.26788532 74.43640779 -7 75.5 C-4.66839945 75.59909302 -2.33370058 75.62970504 0 75.625 C1.27875 75.62757812 2.5575 75.63015625 3.875 75.6328125 C6.86687244 75.85860893 6.86687244 75.85860893 8 74.5 C8.09948193 72.38862099 8.12799638 70.27387714 8.12939453 68.16015625 C8.13114685 67.49837372 8.13289917 66.83659119 8.13470459 66.15475464 C8.13912217 63.9573101 8.13618547 61.75994542 8.1328125 59.5625 C8.13348557 58.04174789 8.13445561 56.52099588 8.13571167 55.00024414 C8.13718851 51.80907164 8.13503452 48.61792708 8.13037109 45.42675781 C8.1246738 41.3273547 8.12795288 37.22801704 8.13394356 33.12861633 C8.13754954 29.98717756 8.13641042 26.84575442 8.13381577 23.70431519 C8.1331466 22.19237256 8.13397457 20.68042854 8.13629532 19.16848755 C8.13882245 17.05890113 8.13498044 14.94942213 8.12939453 12.83984375 C8.12859894 11.63706787 8.12780334 10.43429199 8.12698364 9.19506836 C8.30687593 6.58252815 8.30687593 6.58252815 7 5.5 C4.66839945 5.40090698 2.33370058 5.37029496 0 5.375 C-1.27875 5.37242188 -2.5575 5.36984375 -3.875 5.3671875 C-6.86687244 5.14139107 -6.86687244 5.14139107 -8 6.5 C-8.1224331 8.00316769 -8.17776285 9.51188167 -8.20532227 11.01977539 C-8.22526749 11.98069595 -8.24521271 12.94161652 -8.26576233 13.93165588 C-8.28247482 14.976436 -8.29918732 16.02121613 -8.31640625 17.09765625 C-8.33718735 18.16165146 -8.35796844 19.22564667 -8.37937927 20.32188416 C-8.44499254 23.7353544 -8.50381423 27.14890429 -8.5625 30.5625 C-8.60567403 32.87045109 -8.64928794 35.178394 -8.69335938 37.48632812 C-8.80068584 43.15746682 -8.90242992 48.82868552 -9 54.5 C-10.98 54.995 -10.98 54.995 -13 55.5 C-13.12670151 48.31024983 -13.21430998 41.12078712 -13.2746582 33.93017578 C-13.29981355 31.48377728 -13.33394166 29.03745401 -13.37719727 26.59130859 C-13.43780071 23.07630869 -13.46620021 19.56230171 -13.48828125 16.046875 C-13.51408768 14.9519574 -13.5398941 13.85703979 -13.56648254 12.72894287 C-13.56928003 5.16768683 -13.56928003 5.16768683 -10.70776367 1.81152344 C-7.12080137 0.07415426 -3.9029806 -0.08641285 0 0 Z " fill="#0C0608" transform="translate(13,47.5)"/>
<path d="M0 0 C1.794375 -0.01160156 1.794375 -0.01160156 3.625 -0.0234375 C7.23643153 0.40291206 9.11651162 1.20451966 12 3.375 C14.52554512 7.5077102 13.90834561 10.74243739 13 15.375 C11.68 15.045 10.36 14.715 9 14.375 C8.8046875 12.32421875 8.609375 10.2734375 8.4140625 8.22265625 C8.27742188 7.61292969 8.14078125 7.00320312 8 6.375 C5.13366205 4.94183102 2.62764499 5.24299639 -0.5625 5.25 C-1.73941406 5.24742188 -2.91632813 5.24484375 -4.12890625 5.2421875 C-6.89672701 5.04716812 -6.89672701 5.04716812 -8 6.375 C-8.09915795 8.27198849 -8.12799314 10.17268787 -8.12939453 12.07226562 C-8.13254669 13.29022827 -8.13569885 14.50819092 -8.13894653 15.76306152 C-8.13715675 17.10245805 -8.1351058 18.44185424 -8.1328125 19.78125 C-8.1334856 21.1450604 -8.13445567 22.50887068 -8.13571167 23.87268066 C-8.13718838 26.73430521 -8.13503497 29.5958986 -8.13037109 32.45751953 C-8.12467381 36.13318614 -8.12795296 39.80877974 -8.13394356 43.48444366 C-8.13754991 46.30162104 -8.13641025 49.11878098 -8.13381577 51.93595886 C-8.1331467 53.29160063 -8.13397421 54.64724396 -8.13629532 56.00288391 C-8.13882301 57.89450044 -8.13429014 59.78612249 -8.12939453 61.67773438 C-8.12859894 62.75615601 -8.12780334 63.83457764 -8.12698364 64.94567871 C-8.27438546 67.3236918 -8.27438546 67.3236918 -7 68.375 C-4.66839945 68.47409302 -2.33370058 68.50470504 0 68.5 C1.27875 68.50257812 2.5575 68.50515625 3.875 68.5078125 C6.86687244 68.73360893 6.86687244 68.73360893 8 67.375 C8.12197808 65.99449142 8.17768899 64.60802353 8.20532227 63.22241211 C8.22526749 62.34157455 8.24521271 61.460737 8.26576233 60.5532074 C8.29083107 59.11727989 8.29083107 59.11727989 8.31640625 57.65234375 C8.33718735 56.67713272 8.35796844 55.70192169 8.37937927 54.69715881 C8.44498412 51.5690137 8.50381028 48.44078178 8.5625 45.3125 C8.60567483 43.1972565 8.64928877 41.08202191 8.69335938 38.96679688 C8.80067655 33.76962413 8.9024222 28.57236423 9 23.375 C10.32 23.045 11.64 22.715 13 22.375 C14.68821048 25.75142095 14.18486378 29.57812942 14.203125 33.29296875 C14.20882507 34.18357498 14.21452515 35.07418121 14.22039795 35.99177551 C14.22985582 37.88065399 14.23638505 39.76954903 14.24023438 41.65844727 C14.24990303 44.53366424 14.28090335 47.40815513 14.3125 50.28320312 C14.31903385 52.11978743 14.32428282 53.95637684 14.328125 55.79296875 C14.3404718 56.64739059 14.3528186 57.50181244 14.36553955 58.38212585 C14.3455947 63.790961 13.58923677 67.5924764 11 72.375 C7.61841559 74.0657922 3.84052188 73.64389059 0.125 73.6875 C-1.09896484 73.73100586 -1.09896484 73.73100586 -2.34765625 73.77539062 C-8.36458203 73.83919163 -8.36458203 73.83919163 -11.5078125 71.54296875 C-13.98427321 67.94496955 -14.12919039 65.04262313 -14.14526367 60.78955078 C-14.15164352 59.64471222 -14.15802338 58.49987366 -14.16459656 57.32034302 C-14.16570938 56.08283295 -14.1668222 54.84532288 -14.16796875 53.5703125 C-14.17129715 52.2990451 -14.17462555 51.02777771 -14.17805481 49.71798706 C-14.18312207 47.02631129 -14.18589526 44.33473646 -14.18530273 41.64306641 C-14.1852012 38.20096014 -14.19884614 34.75906057 -14.21607494 31.31700325 C-14.22989637 28.02644745 -14.22928446 24.73589339 -14.23046875 21.4453125 C-14.23765427 20.21185089 -14.24483978 18.97838928 -14.25224304 17.70755005 C-14.24916641 16.55640717 -14.24608978 15.40526428 -14.24291992 14.21923828 C-14.24434494 13.20902618 -14.24576996 12.19881409 -14.24723816 11.1579895 C-13.98249789 8.17799083 -13.33326169 6.04565916 -12 3.375 C-8.13206791 0.21158411 -4.90713908 -0.03172719 0 0 Z " fill="#04080B" transform="translate(81,54.625)"/>
<path d="M0 0 C6.0546875 -0.1953125 6.0546875 -0.1953125 8 0 C10.53996453 2.53996453 10.24373475 4.15657627 10.27105713 7.62083435 C10.26700867 8.40531448 10.26296021 9.18979462 10.25878906 9.99804688 C10.2622937 10.82417984 10.26579834 11.65031281 10.26940918 12.5014801 C10.27823381 15.24065478 10.2723748 17.97957256 10.265625 20.71875 C10.26697144 22.6168218 10.2689118 24.51489326 10.27142334 26.41296387 C10.27437559 30.39432045 10.27007371 34.37558741 10.26074219 38.35693359 C10.2493476 43.46852503 10.25590653 48.57990645 10.26788712 53.69149017 C10.27510298 57.61189363 10.27281905 61.53224704 10.26763153 65.45265198 C10.26629428 67.33777389 10.26794539 69.2229003 10.27259064 71.10801697 C10.2776514 73.73945205 10.26995208 76.37054372 10.25878906 79.00195312 C10.26283752 79.78643326 10.26688599 80.57091339 10.27105713 81.37916565 C10.22852836 86.77147164 10.22852836 86.77147164 8 89 C4.375 89.125 4.375 89.125 1 89 C1.00222061 87.9144986 1.00444122 86.82899719 1.00672913 85.71060181 C1.0269701 75.49822171 1.04197677 65.28584567 1.05181217 55.07345009 C1.05703856 49.82272127 1.06413181 44.57200859 1.07543945 39.32128906 C1.08627696 34.25738745 1.09227868 29.1935014 1.09487724 24.12958908 C1.09672993 22.19422536 1.10034756 20.25886252 1.10573006 18.3235054 C1.11295192 15.62011093 1.11399045 12.91678141 1.11352539 10.21337891 C1.11712067 9.40705521 1.12071594 8.60073151 1.12442017 7.76997375 C1.20948643 3.75481963 1.20948643 3.75481963 0 0 Z " fill="#23D2B4" transform="translate(114,35)"/>
<path d="M0 0 C1.20527344 -0.01675781 2.41054688 -0.03351563 3.65234375 -0.05078125 C7.36684564 0.3449217 9.18686577 0.9512905 12.0625 3.3125 C14.33181557 7.58147022 14.36907975 11.73887569 14.36328125 16.46484375 C14.36756638 17.24259659 14.3718515 18.02034943 14.37626648 18.82167053 C14.3819918 20.46142608 14.38252332 22.10120702 14.37817383 23.7409668 C14.37501447 26.23856268 14.39849204 28.73497226 14.42382812 31.23242188 C14.4261015 32.83072768 14.42680443 34.42903665 14.42578125 36.02734375 C14.434991 36.76814682 14.44420074 37.50894989 14.45368958 38.27220154 C14.41172034 43.01676101 13.59437468 46.29151421 11.0625 50.3125 C7.68091559 52.0032922 3.90302188 51.58139059 0.1875 51.625 C-0.62847656 51.65400391 -1.44445313 51.68300781 -2.28515625 51.71289062 C-8.27997128 51.77645718 -8.27997128 51.77645718 -11.4453125 49.54296875 C-14.37520951 45.16346302 -14.11059903 40.6066624 -14.140625 35.4765625 C-14.14632507 34.71959076 -14.15202515 33.96261902 -14.15789795 33.18270874 C-14.16732514 31.58405953 -14.17387285 29.98539109 -14.17773438 28.38671875 C-14.18743909 25.95277723 -14.21848248 23.51968104 -14.25 21.0859375 C-14.25653102 19.52865082 -14.2617811 17.97135813 -14.265625 16.4140625 C-14.2779718 15.69199615 -14.2903186 14.96992981 -14.30303955 14.22598267 C-14.2824636 9.51332946 -13.40837432 6.32154957 -10.9375 2.3125 C-7.62328449 -0.24882023 -4.07493114 0.01304674 0 0 Z M-8.9375 6.3125 C-9.05099161 9.17344217 -9.10168492 12.00933456 -9.10546875 14.87109375 C-9.10879715 15.73058121 -9.11212555 16.59006866 -9.11555481 17.4756012 C-9.1206277 19.29728661 -9.12296302 21.11898136 -9.12280273 22.94067383 C-9.12498803 25.7346929 -9.14313644 28.52831657 -9.16210938 31.32226562 C-9.1650434 33.08854031 -9.16702814 34.85481688 -9.16796875 36.62109375 C-9.17515427 37.46071152 -9.18233978 38.30032928 -9.18974304 39.16539001 C-9.37662131 43.7149276 -9.37662131 43.7149276 -6.9375 47.3125 C-3.64985985 47.63307871 -3.64985985 47.63307871 0.0625 47.5625 C1.9496875 47.57023437 1.9496875 47.57023437 3.875 47.578125 C7.15532361 47.65030455 7.15532361 47.65030455 9.0625 45.3125 C9.25018653 42.3832697 9.31803641 39.55021603 9.29296875 36.62109375 C9.29251053 35.76064957 9.29205231 34.90020538 9.2915802 34.01368713 C9.28855705 32.19376243 9.28066888 30.37384033 9.26831055 28.55395508 C9.25005148 25.75788276 9.24780085 22.96214134 9.24804688 20.16601562 C9.2431319 18.40103878 9.23730367 16.6360642 9.23046875 14.87109375 C9.22935593 14.02945175 9.2282431 13.18780975 9.22709656 12.32066345 C9.56670295 8.50788615 9.56670295 8.50788615 8.0625 5.3125 C5.3851862 5.21268786 2.73945825 5.17370125 0.0625 5.1875 C-0.68773437 5.18363281 -1.43796875 5.17976563 -2.2109375 5.17578125 C-5.87356117 4.83574459 -5.87356117 4.83574459 -8.9375 6.3125 Z " fill="#0C0904" transform="translate(46.9375,76.6875)"/>
<path d="M0 0 C2.64 0 5.28 0 8 0 C9.84601312 1.84601312 9.13741323 4.85305491 9.14526367 7.32397461 C9.15030159 8.31423897 9.15030159 8.31423897 9.15544128 9.32450867 C9.16497695 11.51713925 9.1668957 13.70969369 9.16796875 15.90234375 C9.17117955 17.4207004 9.17454349 18.93905673 9.17805481 20.45741272 C9.18405265 23.64438596 9.18589404 26.83133206 9.18530273 30.01831055 C9.18520108 34.108696 9.19885343 38.19890797 9.21607494 42.28925228 C9.22717571 45.42644556 9.22922254 48.56359666 9.22869301 51.70080757 C9.22987603 53.2091386 9.23431575 54.71747061 9.24202538 56.22578239 C9.25178662 58.33285659 9.24896282 60.43955098 9.24291992 62.54663086 C9.24434494 63.74718613 9.24576996 64.94774139 9.24723816 66.18467712 C9 69 9 69 7 71 C4.69 71 2.38 71 0 71 C0 47.57 0 24.14 0 0 Z " fill="#FE6BB4" transform="translate(13,53)"/>
<path d="M0 0 C2.10388569 -0.05402274 4.20816714 -0.09280256 6.3125 -0.125 C8.07013672 -0.15980469 8.07013672 -0.15980469 9.86328125 -0.1953125 C13 0 13 0 16 2 C16.44140625 3.91015625 16.44140625 3.91015625 16.5625 6.0625 C16.706875 7.361875 16.85125 8.66125 17 10 C17.66 10.33 18.32 10.66 19 11 C19 13.31 19 15.62 19 18 C18.34 18.33 17.68 18.66 17 19 C16.99191315 19.54679413 16.98382629 20.09358826 16.97549438 20.6569519 C16.88961231 26.33453114 16.79011675 32.0117546 16.68261719 37.68896484 C16.64427158 39.8093469 16.60942867 41.92979526 16.578125 44.05029297 C16.53259534 47.09366598 16.47458161 50.13658032 16.4140625 53.1796875 C16.39673569 54.60787308 16.39673569 54.60787308 16.37905884 56.06491089 C16.35918915 56.94567291 16.33931946 57.82643494 16.31884766 58.73388672 C16.30552399 59.51110077 16.29220032 60.28831482 16.2784729 61.08908081 C16 63 16 63 14 65 C11.69 65 9.38 65 7 65 C7 44.21 7 23.42 7 2 C4.69 1.67 2.38 1.34 0 1 C0 0.67 0 0.34 0 0 Z " fill="#60A4F9" transform="translate(74,59)"/>
<path d="M0 0 C2.64 0 5.28 0 8 0 C10.09441119 2.09441119 9.16414502 6.66665682 9.16796875 9.55859375 C9.17129715 10.41808121 9.17462555 11.27756866 9.17805481 12.1631012 C9.1831277 13.98478661 9.18546302 15.80648136 9.18530273 17.62817383 C9.18748803 20.4221929 9.20563644 23.21581657 9.22460938 26.00976562 C9.2275434 27.77604031 9.22952814 29.54231688 9.23046875 31.30859375 C9.23765427 32.14821152 9.24483978 32.98782928 9.25224304 33.85289001 C9.22882181 39.77117819 9.22882181 39.77117819 7 42 C4.69 42 2.38 42 0 42 C0 28.14 0 14.28 0 0 Z " fill="#FBC544" transform="translate(47,82)"/>
<path d="M0 0 C2.625 0.375 2.625 0.375 5 1 C5.625 3.375 5.625 3.375 6 6 C5.34 6.66 4.68 7.32 4 8 C1.375 7.625 1.375 7.625 -1 7 C-1.625 4.625 -1.625 4.625 -2 2 C-1.34 1.34 -0.68 0.68 0 0 Z " fill="#808DAB" transform="translate(79,31)"/>
<path d="M0 0 C2.625 0.375 2.625 0.375 5 1 C5.625 3.375 5.625 3.375 6 6 C5.34 6.66 4.68 7.32 4 8 C1.375 7.625 1.375 7.625 -1 7 C-1.625 4.625 -1.625 4.625 -2 2 C-1.34 1.34 -0.68 0.68 0 0 Z " fill="#808CAB" transform="translate(11,23)"/>
<path d="M0 0 C1.4540625 0.0309375 1.4540625 0.0309375 2.9375 0.0625 C3.5625 2.4375 3.5625 2.4375 3.9375 5.0625 C3.2775 5.7225 2.6175 6.3825 1.9375 7.0625 C-0.6875 6.6875 -0.6875 6.6875 -3.0625 6.0625 C-3.44468767 4.40635343 -3.77645102 2.73792976 -4.0625 1.0625 C-3.0625 0.0625 -3.0625 0.0625 0 0 Z " fill="#8491B1" transform="translate(47.0625,58.9375)"/>
<path d="M0 0 C2.625 0.375 2.625 0.375 5 1 C6.125 4.75 6.125 4.75 5 7 C3.02 7 1.04 7 -1 7 C-1.625 4.625 -1.625 4.625 -2 2 C-1.34 1.34 -0.68 0.68 0 0 Z " fill="#8895B5" transform="translate(113,4)"/>
</svg>
