<?xml version="1.0" encoding="UTF-8"?>
<svg xmlns="http://www.w3.org/2000/svg" id="Layer_1" data-name="Layer 1" viewBox="0 0 24 24">
  <path d="M22.705,21.253l-4.399-4.374c1.181-1.561,1.81-3.679,1.859-6.329-.105-6.095-3.507-9.473-9.588-9.513C4.423,1.076,1,4.649,1,10.549c0,6.195,3.426,9.512,9.589,9.548,2.629-.016,4.739-.626,6.303-1.805l4.403,4.379c.518,.492,1.131,.291,1.414-.004,.383-.398,.388-1.025-.004-1.414ZM3,10.567c.097-5.035,2.579-7.499,7.576-7.53,4.949,.032,7.503,2.571,7.589,7.512-.094,5.12-2.505,7.518-7.576,7.548-5.077-.03-7.489-2.422-7.589-7.53Z"/>
</svg>
